%TF.GenerationSoftware,KiCad,Pcbnew,9.0.2*%
%TF.CreationDate,2025-05-28T09:58:12-07:00*%
%TF.ProjectId,AnalogIn,416e616c-6f67-4496-9e2e-6b696361645f,rev?*%
%TF.SameCoordinates,Original*%
%TF.FileFunction,Soldermask,Top*%
%TF.FilePolarity,Negative*%
%FSLAX46Y46*%
G04 Gerber Fmt 4.6, Leading zero omitted, Abs format (unit mm)*
G04 Created by KiCad (PCBNEW 9.0.2) date 2025-05-28 09:58:12*
%MOMM*%
%LPD*%
G01*
G04 APERTURE LIST*
%ADD10C,2.000000*%
%ADD11C,1.200000*%
%ADD12O,2.000000X1.400000*%
%ADD13R,2.000000X1.400000*%
%ADD14R,1.700000X1.700000*%
%ADD15O,1.700000X1.700000*%
%ADD16R,1.800000X1.800000*%
%ADD17C,1.800000*%
%ADD18C,2.400000*%
%ADD19O,2.400000X2.400000*%
G04 APERTURE END LIST*
D10*
%TO.C,M1*%
X160401000Y-110769400D03*
X160401000Y-108229400D03*
X160401000Y-105689400D03*
X160401000Y-103149400D03*
X160401000Y-100609400D03*
X160401000Y-98069400D03*
X160401000Y-95529400D03*
X160401000Y-92989400D03*
X160401000Y-90449400D03*
X160401000Y-87909400D03*
X160401000Y-85369400D03*
X160401000Y-82829400D03*
X160401000Y-80289400D03*
X160401000Y-77749400D03*
X160401000Y-75209400D03*
X160401000Y-72669400D03*
X183261000Y-108229400D03*
X183261000Y-105689400D03*
X183261000Y-103149400D03*
X183261000Y-100609400D03*
X183261000Y-98069400D03*
X183261000Y-95529400D03*
X183261000Y-92989400D03*
X183261000Y-90449400D03*
X183261000Y-87909400D03*
X183261000Y-85369400D03*
X183261000Y-82829400D03*
X183261000Y-80289400D03*
X183261000Y-77749400D03*
X183261000Y-75209400D03*
X183261000Y-72669400D03*
%TD*%
D11*
%TO.C,J1*%
X192010000Y-59340000D03*
X185010000Y-59340000D03*
D12*
X187410000Y-61540000D03*
X190410000Y-61540000D03*
X181910000Y-57040000D03*
D13*
X183410000Y-61540000D03*
%TD*%
D14*
%TO.C,J2*%
X160451800Y-51536600D03*
D15*
X160451800Y-48996600D03*
X160451800Y-46456600D03*
X160451800Y-43916600D03*
%TD*%
D16*
%TO.C,D2*%
X186690000Y-118618000D03*
D17*
X189230000Y-118618000D03*
%TD*%
D18*
%TO.C,R1*%
X189484000Y-86614000D03*
D19*
X189484000Y-94234000D03*
%TD*%
D18*
%TO.C,R2*%
X172720000Y-118872000D03*
D19*
X180340000Y-118872000D03*
%TD*%
D10*
%TO.C,SW1*%
X186944000Y-101600000D03*
X186944000Y-104140000D03*
X186944000Y-106680000D03*
X192024000Y-106680000D03*
X192024000Y-104140000D03*
X192024000Y-101600000D03*
%TD*%
M02*
