%TF.GenerationSoftware,KiCad,Pcbnew,9.0.2*%
%TF.CreationDate,2025-05-28T09:58:12-07:00*%
%TF.ProjectId,AnalogIn,416e616c-6f67-4496-9e2e-6b696361645f,rev?*%
%TF.SameCoordinates,Original*%
%TF.FileFunction,Legend,Top*%
%TF.FilePolarity,Positive*%
%FSLAX46Y46*%
G04 Gerber Fmt 4.6, Leading zero omitted, Abs format (unit mm)*
G04 Created by KiCad (PCBNEW 9.0.2) date 2025-05-28 09:58:12*
%MOMM*%
%LPD*%
G01*
G04 APERTURE LIST*
%ADD10C,0.150000*%
%ADD11C,0.120000*%
%ADD12C,0.050000*%
G04 APERTURE END LIST*
D10*
X164807200Y-45214285D02*
X164854819Y-45071428D01*
X164854819Y-45071428D02*
X164854819Y-44833333D01*
X164854819Y-44833333D02*
X164807200Y-44738095D01*
X164807200Y-44738095D02*
X164759580Y-44690476D01*
X164759580Y-44690476D02*
X164664342Y-44642857D01*
X164664342Y-44642857D02*
X164569104Y-44642857D01*
X164569104Y-44642857D02*
X164473866Y-44690476D01*
X164473866Y-44690476D02*
X164426247Y-44738095D01*
X164426247Y-44738095D02*
X164378628Y-44833333D01*
X164378628Y-44833333D02*
X164331009Y-45023809D01*
X164331009Y-45023809D02*
X164283390Y-45119047D01*
X164283390Y-45119047D02*
X164235771Y-45166666D01*
X164235771Y-45166666D02*
X164140533Y-45214285D01*
X164140533Y-45214285D02*
X164045295Y-45214285D01*
X164045295Y-45214285D02*
X163950057Y-45166666D01*
X163950057Y-45166666D02*
X163902438Y-45119047D01*
X163902438Y-45119047D02*
X163854819Y-45023809D01*
X163854819Y-45023809D02*
X163854819Y-44785714D01*
X163854819Y-44785714D02*
X163902438Y-44642857D01*
X164854819Y-44214285D02*
X163854819Y-44214285D01*
X163854819Y-44214285D02*
X163854819Y-43976190D01*
X163854819Y-43976190D02*
X163902438Y-43833333D01*
X163902438Y-43833333D02*
X163997676Y-43738095D01*
X163997676Y-43738095D02*
X164092914Y-43690476D01*
X164092914Y-43690476D02*
X164283390Y-43642857D01*
X164283390Y-43642857D02*
X164426247Y-43642857D01*
X164426247Y-43642857D02*
X164616723Y-43690476D01*
X164616723Y-43690476D02*
X164711961Y-43738095D01*
X164711961Y-43738095D02*
X164807200Y-43833333D01*
X164807200Y-43833333D02*
X164854819Y-43976190D01*
X164854819Y-43976190D02*
X164854819Y-44214285D01*
X164569104Y-43261904D02*
X164569104Y-42785714D01*
X164854819Y-43357142D02*
X163854819Y-43023809D01*
X163854819Y-43023809D02*
X164854819Y-42690476D01*
X163607200Y-47890475D02*
X163654819Y-47747618D01*
X163654819Y-47747618D02*
X163654819Y-47509523D01*
X163654819Y-47509523D02*
X163607200Y-47414285D01*
X163607200Y-47414285D02*
X163559580Y-47366666D01*
X163559580Y-47366666D02*
X163464342Y-47319047D01*
X163464342Y-47319047D02*
X163369104Y-47319047D01*
X163369104Y-47319047D02*
X163273866Y-47366666D01*
X163273866Y-47366666D02*
X163226247Y-47414285D01*
X163226247Y-47414285D02*
X163178628Y-47509523D01*
X163178628Y-47509523D02*
X163131009Y-47699999D01*
X163131009Y-47699999D02*
X163083390Y-47795237D01*
X163083390Y-47795237D02*
X163035771Y-47842856D01*
X163035771Y-47842856D02*
X162940533Y-47890475D01*
X162940533Y-47890475D02*
X162845295Y-47890475D01*
X162845295Y-47890475D02*
X162750057Y-47842856D01*
X162750057Y-47842856D02*
X162702438Y-47795237D01*
X162702438Y-47795237D02*
X162654819Y-47699999D01*
X162654819Y-47699999D02*
X162654819Y-47461904D01*
X162654819Y-47461904D02*
X162702438Y-47319047D01*
X163559580Y-46319047D02*
X163607200Y-46366666D01*
X163607200Y-46366666D02*
X163654819Y-46509523D01*
X163654819Y-46509523D02*
X163654819Y-46604761D01*
X163654819Y-46604761D02*
X163607200Y-46747618D01*
X163607200Y-46747618D02*
X163511961Y-46842856D01*
X163511961Y-46842856D02*
X163416723Y-46890475D01*
X163416723Y-46890475D02*
X163226247Y-46938094D01*
X163226247Y-46938094D02*
X163083390Y-46938094D01*
X163083390Y-46938094D02*
X162892914Y-46890475D01*
X162892914Y-46890475D02*
X162797676Y-46842856D01*
X162797676Y-46842856D02*
X162702438Y-46747618D01*
X162702438Y-46747618D02*
X162654819Y-46604761D01*
X162654819Y-46604761D02*
X162654819Y-46509523D01*
X162654819Y-46509523D02*
X162702438Y-46366666D01*
X162702438Y-46366666D02*
X162750057Y-46319047D01*
X163654819Y-45414285D02*
X163654819Y-45890475D01*
X163654819Y-45890475D02*
X162654819Y-45890475D01*
X163854819Y-50433332D02*
X164854819Y-50099999D01*
X164854819Y-50099999D02*
X163854819Y-49766666D01*
X164759580Y-48861904D02*
X164807200Y-48909523D01*
X164807200Y-48909523D02*
X164854819Y-49052380D01*
X164854819Y-49052380D02*
X164854819Y-49147618D01*
X164854819Y-49147618D02*
X164807200Y-49290475D01*
X164807200Y-49290475D02*
X164711961Y-49385713D01*
X164711961Y-49385713D02*
X164616723Y-49433332D01*
X164616723Y-49433332D02*
X164426247Y-49480951D01*
X164426247Y-49480951D02*
X164283390Y-49480951D01*
X164283390Y-49480951D02*
X164092914Y-49433332D01*
X164092914Y-49433332D02*
X163997676Y-49385713D01*
X163997676Y-49385713D02*
X163902438Y-49290475D01*
X163902438Y-49290475D02*
X163854819Y-49147618D01*
X163854819Y-49147618D02*
X163854819Y-49052380D01*
X163854819Y-49052380D02*
X163902438Y-48909523D01*
X163902438Y-48909523D02*
X163950057Y-48861904D01*
X164759580Y-47861904D02*
X164807200Y-47909523D01*
X164807200Y-47909523D02*
X164854819Y-48052380D01*
X164854819Y-48052380D02*
X164854819Y-48147618D01*
X164854819Y-48147618D02*
X164807200Y-48290475D01*
X164807200Y-48290475D02*
X164711961Y-48385713D01*
X164711961Y-48385713D02*
X164616723Y-48433332D01*
X164616723Y-48433332D02*
X164426247Y-48480951D01*
X164426247Y-48480951D02*
X164283390Y-48480951D01*
X164283390Y-48480951D02*
X164092914Y-48433332D01*
X164092914Y-48433332D02*
X163997676Y-48385713D01*
X163997676Y-48385713D02*
X163902438Y-48290475D01*
X163902438Y-48290475D02*
X163854819Y-48147618D01*
X163854819Y-48147618D02*
X163854819Y-48052380D01*
X163854819Y-48052380D02*
X163902438Y-47909523D01*
X163902438Y-47909523D02*
X163950057Y-47861904D01*
X162802438Y-52661904D02*
X162754819Y-52757142D01*
X162754819Y-52757142D02*
X162754819Y-52899999D01*
X162754819Y-52899999D02*
X162802438Y-53042856D01*
X162802438Y-53042856D02*
X162897676Y-53138094D01*
X162897676Y-53138094D02*
X162992914Y-53185713D01*
X162992914Y-53185713D02*
X163183390Y-53233332D01*
X163183390Y-53233332D02*
X163326247Y-53233332D01*
X163326247Y-53233332D02*
X163516723Y-53185713D01*
X163516723Y-53185713D02*
X163611961Y-53138094D01*
X163611961Y-53138094D02*
X163707200Y-53042856D01*
X163707200Y-53042856D02*
X163754819Y-52899999D01*
X163754819Y-52899999D02*
X163754819Y-52804761D01*
X163754819Y-52804761D02*
X163707200Y-52661904D01*
X163707200Y-52661904D02*
X163659580Y-52614285D01*
X163659580Y-52614285D02*
X163326247Y-52614285D01*
X163326247Y-52614285D02*
X163326247Y-52804761D01*
X163754819Y-52185713D02*
X162754819Y-52185713D01*
X162754819Y-52185713D02*
X163754819Y-51614285D01*
X163754819Y-51614285D02*
X162754819Y-51614285D01*
X163754819Y-51138094D02*
X162754819Y-51138094D01*
X162754819Y-51138094D02*
X162754819Y-50899999D01*
X162754819Y-50899999D02*
X162802438Y-50757142D01*
X162802438Y-50757142D02*
X162897676Y-50661904D01*
X162897676Y-50661904D02*
X162992914Y-50614285D01*
X162992914Y-50614285D02*
X163183390Y-50566666D01*
X163183390Y-50566666D02*
X163326247Y-50566666D01*
X163326247Y-50566666D02*
X163516723Y-50614285D01*
X163516723Y-50614285D02*
X163611961Y-50661904D01*
X163611961Y-50661904D02*
X163707200Y-50757142D01*
X163707200Y-50757142D02*
X163754819Y-50899999D01*
X163754819Y-50899999D02*
X163754819Y-51138094D01*
X167707200Y-50866666D02*
X167754819Y-50723809D01*
X167754819Y-50723809D02*
X167754819Y-50485714D01*
X167754819Y-50485714D02*
X167707200Y-50390476D01*
X167707200Y-50390476D02*
X167659580Y-50342857D01*
X167659580Y-50342857D02*
X167564342Y-50295238D01*
X167564342Y-50295238D02*
X167469104Y-50295238D01*
X167469104Y-50295238D02*
X167373866Y-50342857D01*
X167373866Y-50342857D02*
X167326247Y-50390476D01*
X167326247Y-50390476D02*
X167278628Y-50485714D01*
X167278628Y-50485714D02*
X167231009Y-50676190D01*
X167231009Y-50676190D02*
X167183390Y-50771428D01*
X167183390Y-50771428D02*
X167135771Y-50819047D01*
X167135771Y-50819047D02*
X167040533Y-50866666D01*
X167040533Y-50866666D02*
X166945295Y-50866666D01*
X166945295Y-50866666D02*
X166850057Y-50819047D01*
X166850057Y-50819047D02*
X166802438Y-50771428D01*
X166802438Y-50771428D02*
X166754819Y-50676190D01*
X166754819Y-50676190D02*
X166754819Y-50438095D01*
X166754819Y-50438095D02*
X166802438Y-50295238D01*
X167707200Y-49914285D02*
X167754819Y-49771428D01*
X167754819Y-49771428D02*
X167754819Y-49533333D01*
X167754819Y-49533333D02*
X167707200Y-49438095D01*
X167707200Y-49438095D02*
X167659580Y-49390476D01*
X167659580Y-49390476D02*
X167564342Y-49342857D01*
X167564342Y-49342857D02*
X167469104Y-49342857D01*
X167469104Y-49342857D02*
X167373866Y-49390476D01*
X167373866Y-49390476D02*
X167326247Y-49438095D01*
X167326247Y-49438095D02*
X167278628Y-49533333D01*
X167278628Y-49533333D02*
X167231009Y-49723809D01*
X167231009Y-49723809D02*
X167183390Y-49819047D01*
X167183390Y-49819047D02*
X167135771Y-49866666D01*
X167135771Y-49866666D02*
X167040533Y-49914285D01*
X167040533Y-49914285D02*
X166945295Y-49914285D01*
X166945295Y-49914285D02*
X166850057Y-49866666D01*
X166850057Y-49866666D02*
X166802438Y-49819047D01*
X166802438Y-49819047D02*
X166754819Y-49723809D01*
X166754819Y-49723809D02*
X166754819Y-49485714D01*
X166754819Y-49485714D02*
X166802438Y-49342857D01*
X167754819Y-48914285D02*
X166754819Y-48914285D01*
X166754819Y-48914285D02*
X166754819Y-48676190D01*
X166754819Y-48676190D02*
X166802438Y-48533333D01*
X166802438Y-48533333D02*
X166897676Y-48438095D01*
X166897676Y-48438095D02*
X166992914Y-48390476D01*
X166992914Y-48390476D02*
X167183390Y-48342857D01*
X167183390Y-48342857D02*
X167326247Y-48342857D01*
X167326247Y-48342857D02*
X167516723Y-48390476D01*
X167516723Y-48390476D02*
X167611961Y-48438095D01*
X167611961Y-48438095D02*
X167707200Y-48533333D01*
X167707200Y-48533333D02*
X167754819Y-48676190D01*
X167754819Y-48676190D02*
X167754819Y-48914285D01*
X167754819Y-47390476D02*
X167754819Y-47961904D01*
X167754819Y-47676190D02*
X166754819Y-47676190D01*
X166754819Y-47676190D02*
X166897676Y-47771428D01*
X166897676Y-47771428D02*
X166992914Y-47866666D01*
X166992914Y-47866666D02*
X167040533Y-47961904D01*
X166754819Y-47057142D02*
X166754819Y-46438095D01*
X166754819Y-46438095D02*
X167135771Y-46771428D01*
X167135771Y-46771428D02*
X167135771Y-46628571D01*
X167135771Y-46628571D02*
X167183390Y-46533333D01*
X167183390Y-46533333D02*
X167231009Y-46485714D01*
X167231009Y-46485714D02*
X167326247Y-46438095D01*
X167326247Y-46438095D02*
X167564342Y-46438095D01*
X167564342Y-46438095D02*
X167659580Y-46485714D01*
X167659580Y-46485714D02*
X167707200Y-46533333D01*
X167707200Y-46533333D02*
X167754819Y-46628571D01*
X167754819Y-46628571D02*
X167754819Y-46914285D01*
X167754819Y-46914285D02*
X167707200Y-47009523D01*
X167707200Y-47009523D02*
X167659580Y-47057142D01*
X166754819Y-45819047D02*
X166754819Y-45723809D01*
X166754819Y-45723809D02*
X166802438Y-45628571D01*
X166802438Y-45628571D02*
X166850057Y-45580952D01*
X166850057Y-45580952D02*
X166945295Y-45533333D01*
X166945295Y-45533333D02*
X167135771Y-45485714D01*
X167135771Y-45485714D02*
X167373866Y-45485714D01*
X167373866Y-45485714D02*
X167564342Y-45533333D01*
X167564342Y-45533333D02*
X167659580Y-45580952D01*
X167659580Y-45580952D02*
X167707200Y-45628571D01*
X167707200Y-45628571D02*
X167754819Y-45723809D01*
X167754819Y-45723809D02*
X167754819Y-45819047D01*
X167754819Y-45819047D02*
X167707200Y-45914285D01*
X167707200Y-45914285D02*
X167659580Y-45961904D01*
X167659580Y-45961904D02*
X167564342Y-46009523D01*
X167564342Y-46009523D02*
X167373866Y-46057142D01*
X167373866Y-46057142D02*
X167135771Y-46057142D01*
X167135771Y-46057142D02*
X166945295Y-46009523D01*
X166945295Y-46009523D02*
X166850057Y-45961904D01*
X166850057Y-45961904D02*
X166802438Y-45914285D01*
X166802438Y-45914285D02*
X166754819Y-45819047D01*
X166754819Y-44628571D02*
X166754819Y-44819047D01*
X166754819Y-44819047D02*
X166802438Y-44914285D01*
X166802438Y-44914285D02*
X166850057Y-44961904D01*
X166850057Y-44961904D02*
X166992914Y-45057142D01*
X166992914Y-45057142D02*
X167183390Y-45104761D01*
X167183390Y-45104761D02*
X167564342Y-45104761D01*
X167564342Y-45104761D02*
X167659580Y-45057142D01*
X167659580Y-45057142D02*
X167707200Y-45009523D01*
X167707200Y-45009523D02*
X167754819Y-44914285D01*
X167754819Y-44914285D02*
X167754819Y-44723809D01*
X167754819Y-44723809D02*
X167707200Y-44628571D01*
X167707200Y-44628571D02*
X167659580Y-44580952D01*
X167659580Y-44580952D02*
X167564342Y-44533333D01*
X167564342Y-44533333D02*
X167326247Y-44533333D01*
X167326247Y-44533333D02*
X167231009Y-44580952D01*
X167231009Y-44580952D02*
X167183390Y-44628571D01*
X167183390Y-44628571D02*
X167135771Y-44723809D01*
X167135771Y-44723809D02*
X167135771Y-44914285D01*
X167135771Y-44914285D02*
X167183390Y-45009523D01*
X167183390Y-45009523D02*
X167231009Y-45057142D01*
X167231009Y-45057142D02*
X167326247Y-45104761D01*
X186038152Y-98988095D02*
X186323866Y-99749999D01*
X186323866Y-99749999D02*
X186609580Y-98988095D01*
X186371485Y-98607142D02*
X186371485Y-97750000D01*
X186704819Y-97369047D02*
X185704819Y-97369047D01*
X185704819Y-97369047D02*
X186704819Y-96797619D01*
X186704819Y-96797619D02*
X185704819Y-96797619D01*
X185704819Y-96130952D02*
X185704819Y-95940476D01*
X185704819Y-95940476D02*
X185752438Y-95845238D01*
X185752438Y-95845238D02*
X185847676Y-95750000D01*
X185847676Y-95750000D02*
X186038152Y-95702381D01*
X186038152Y-95702381D02*
X186371485Y-95702381D01*
X186371485Y-95702381D02*
X186561961Y-95750000D01*
X186561961Y-95750000D02*
X186657200Y-95845238D01*
X186657200Y-95845238D02*
X186704819Y-95940476D01*
X186704819Y-95940476D02*
X186704819Y-96130952D01*
X186704819Y-96130952D02*
X186657200Y-96226190D01*
X186657200Y-96226190D02*
X186561961Y-96321428D01*
X186561961Y-96321428D02*
X186371485Y-96369047D01*
X186371485Y-96369047D02*
X186038152Y-96369047D01*
X186038152Y-96369047D02*
X185847676Y-96321428D01*
X185847676Y-96321428D02*
X185752438Y-96226190D01*
X185752438Y-96226190D02*
X185704819Y-96130952D01*
X165242857Y-126164819D02*
X165576190Y-127164819D01*
X165576190Y-127164819D02*
X165909523Y-126164819D01*
X166242857Y-126783866D02*
X167004762Y-126783866D01*
X167480952Y-127164819D02*
X167480952Y-126164819D01*
X167480952Y-126641009D02*
X168052380Y-126641009D01*
X168052380Y-127164819D02*
X168052380Y-126164819D01*
X168671428Y-127164819D02*
X168576190Y-127117200D01*
X168576190Y-127117200D02*
X168528571Y-127069580D01*
X168528571Y-127069580D02*
X168480952Y-126974342D01*
X168480952Y-126974342D02*
X168480952Y-126688628D01*
X168480952Y-126688628D02*
X168528571Y-126593390D01*
X168528571Y-126593390D02*
X168576190Y-126545771D01*
X168576190Y-126545771D02*
X168671428Y-126498152D01*
X168671428Y-126498152D02*
X168814285Y-126498152D01*
X168814285Y-126498152D02*
X168909523Y-126545771D01*
X168909523Y-126545771D02*
X168957142Y-126593390D01*
X168957142Y-126593390D02*
X169004761Y-126688628D01*
X169004761Y-126688628D02*
X169004761Y-126974342D01*
X169004761Y-126974342D02*
X168957142Y-127069580D01*
X168957142Y-127069580D02*
X168909523Y-127117200D01*
X168909523Y-127117200D02*
X168814285Y-127164819D01*
X168814285Y-127164819D02*
X168671428Y-127164819D01*
X169576190Y-127164819D02*
X169480952Y-127117200D01*
X169480952Y-127117200D02*
X169433333Y-127021961D01*
X169433333Y-127021961D02*
X169433333Y-126164819D01*
X170338095Y-127117200D02*
X170242857Y-127164819D01*
X170242857Y-127164819D02*
X170052381Y-127164819D01*
X170052381Y-127164819D02*
X169957143Y-127117200D01*
X169957143Y-127117200D02*
X169909524Y-127021961D01*
X169909524Y-127021961D02*
X169909524Y-126641009D01*
X169909524Y-126641009D02*
X169957143Y-126545771D01*
X169957143Y-126545771D02*
X170052381Y-126498152D01*
X170052381Y-126498152D02*
X170242857Y-126498152D01*
X170242857Y-126498152D02*
X170338095Y-126545771D01*
X170338095Y-126545771D02*
X170385714Y-126641009D01*
X170385714Y-126641009D02*
X170385714Y-126736247D01*
X170385714Y-126736247D02*
X169909524Y-126831485D01*
X171576191Y-127164819D02*
X171576191Y-126164819D01*
X171576191Y-126164819D02*
X171814286Y-126164819D01*
X171814286Y-126164819D02*
X171957143Y-126212438D01*
X171957143Y-126212438D02*
X172052381Y-126307676D01*
X172052381Y-126307676D02*
X172100000Y-126402914D01*
X172100000Y-126402914D02*
X172147619Y-126593390D01*
X172147619Y-126593390D02*
X172147619Y-126736247D01*
X172147619Y-126736247D02*
X172100000Y-126926723D01*
X172100000Y-126926723D02*
X172052381Y-127021961D01*
X172052381Y-127021961D02*
X171957143Y-127117200D01*
X171957143Y-127117200D02*
X171814286Y-127164819D01*
X171814286Y-127164819D02*
X171576191Y-127164819D01*
X172576191Y-127164819D02*
X172576191Y-126498152D01*
X172576191Y-126164819D02*
X172528572Y-126212438D01*
X172528572Y-126212438D02*
X172576191Y-126260057D01*
X172576191Y-126260057D02*
X172623810Y-126212438D01*
X172623810Y-126212438D02*
X172576191Y-126164819D01*
X172576191Y-126164819D02*
X172576191Y-126260057D01*
X173004762Y-127117200D02*
X173100000Y-127164819D01*
X173100000Y-127164819D02*
X173290476Y-127164819D01*
X173290476Y-127164819D02*
X173385714Y-127117200D01*
X173385714Y-127117200D02*
X173433333Y-127021961D01*
X173433333Y-127021961D02*
X173433333Y-126974342D01*
X173433333Y-126974342D02*
X173385714Y-126879104D01*
X173385714Y-126879104D02*
X173290476Y-126831485D01*
X173290476Y-126831485D02*
X173147619Y-126831485D01*
X173147619Y-126831485D02*
X173052381Y-126783866D01*
X173052381Y-126783866D02*
X173004762Y-126688628D01*
X173004762Y-126688628D02*
X173004762Y-126641009D01*
X173004762Y-126641009D02*
X173052381Y-126545771D01*
X173052381Y-126545771D02*
X173147619Y-126498152D01*
X173147619Y-126498152D02*
X173290476Y-126498152D01*
X173290476Y-126498152D02*
X173385714Y-126545771D01*
X173719048Y-126498152D02*
X174100000Y-126498152D01*
X173861905Y-126164819D02*
X173861905Y-127021961D01*
X173861905Y-127021961D02*
X173909524Y-127117200D01*
X173909524Y-127117200D02*
X174004762Y-127164819D01*
X174004762Y-127164819D02*
X174100000Y-127164819D01*
X174861905Y-127164819D02*
X174861905Y-126641009D01*
X174861905Y-126641009D02*
X174814286Y-126545771D01*
X174814286Y-126545771D02*
X174719048Y-126498152D01*
X174719048Y-126498152D02*
X174528572Y-126498152D01*
X174528572Y-126498152D02*
X174433334Y-126545771D01*
X174861905Y-127117200D02*
X174766667Y-127164819D01*
X174766667Y-127164819D02*
X174528572Y-127164819D01*
X174528572Y-127164819D02*
X174433334Y-127117200D01*
X174433334Y-127117200D02*
X174385715Y-127021961D01*
X174385715Y-127021961D02*
X174385715Y-126926723D01*
X174385715Y-126926723D02*
X174433334Y-126831485D01*
X174433334Y-126831485D02*
X174528572Y-126783866D01*
X174528572Y-126783866D02*
X174766667Y-126783866D01*
X174766667Y-126783866D02*
X174861905Y-126736247D01*
X175338096Y-126498152D02*
X175338096Y-127164819D01*
X175338096Y-126593390D02*
X175385715Y-126545771D01*
X175385715Y-126545771D02*
X175480953Y-126498152D01*
X175480953Y-126498152D02*
X175623810Y-126498152D01*
X175623810Y-126498152D02*
X175719048Y-126545771D01*
X175719048Y-126545771D02*
X175766667Y-126641009D01*
X175766667Y-126641009D02*
X175766667Y-127164819D01*
X176671429Y-127117200D02*
X176576191Y-127164819D01*
X176576191Y-127164819D02*
X176385715Y-127164819D01*
X176385715Y-127164819D02*
X176290477Y-127117200D01*
X176290477Y-127117200D02*
X176242858Y-127069580D01*
X176242858Y-127069580D02*
X176195239Y-126974342D01*
X176195239Y-126974342D02*
X176195239Y-126688628D01*
X176195239Y-126688628D02*
X176242858Y-126593390D01*
X176242858Y-126593390D02*
X176290477Y-126545771D01*
X176290477Y-126545771D02*
X176385715Y-126498152D01*
X176385715Y-126498152D02*
X176576191Y-126498152D01*
X176576191Y-126498152D02*
X176671429Y-126545771D01*
X177480953Y-127117200D02*
X177385715Y-127164819D01*
X177385715Y-127164819D02*
X177195239Y-127164819D01*
X177195239Y-127164819D02*
X177100001Y-127117200D01*
X177100001Y-127117200D02*
X177052382Y-127021961D01*
X177052382Y-127021961D02*
X177052382Y-126641009D01*
X177052382Y-126641009D02*
X177100001Y-126545771D01*
X177100001Y-126545771D02*
X177195239Y-126498152D01*
X177195239Y-126498152D02*
X177385715Y-126498152D01*
X177385715Y-126498152D02*
X177480953Y-126545771D01*
X177480953Y-126545771D02*
X177528572Y-126641009D01*
X177528572Y-126641009D02*
X177528572Y-126736247D01*
X177528572Y-126736247D02*
X177052382Y-126831485D01*
X178719049Y-126641009D02*
X179480954Y-126641009D01*
X179480954Y-126926723D02*
X178719049Y-126926723D01*
X180861906Y-126593390D02*
X180766668Y-126545771D01*
X180766668Y-126545771D02*
X180719049Y-126498152D01*
X180719049Y-126498152D02*
X180671430Y-126402914D01*
X180671430Y-126402914D02*
X180671430Y-126355295D01*
X180671430Y-126355295D02*
X180719049Y-126260057D01*
X180719049Y-126260057D02*
X180766668Y-126212438D01*
X180766668Y-126212438D02*
X180861906Y-126164819D01*
X180861906Y-126164819D02*
X181052382Y-126164819D01*
X181052382Y-126164819D02*
X181147620Y-126212438D01*
X181147620Y-126212438D02*
X181195239Y-126260057D01*
X181195239Y-126260057D02*
X181242858Y-126355295D01*
X181242858Y-126355295D02*
X181242858Y-126402914D01*
X181242858Y-126402914D02*
X181195239Y-126498152D01*
X181195239Y-126498152D02*
X181147620Y-126545771D01*
X181147620Y-126545771D02*
X181052382Y-126593390D01*
X181052382Y-126593390D02*
X180861906Y-126593390D01*
X180861906Y-126593390D02*
X180766668Y-126641009D01*
X180766668Y-126641009D02*
X180719049Y-126688628D01*
X180719049Y-126688628D02*
X180671430Y-126783866D01*
X180671430Y-126783866D02*
X180671430Y-126974342D01*
X180671430Y-126974342D02*
X180719049Y-127069580D01*
X180719049Y-127069580D02*
X180766668Y-127117200D01*
X180766668Y-127117200D02*
X180861906Y-127164819D01*
X180861906Y-127164819D02*
X181052382Y-127164819D01*
X181052382Y-127164819D02*
X181147620Y-127117200D01*
X181147620Y-127117200D02*
X181195239Y-127069580D01*
X181195239Y-127069580D02*
X181242858Y-126974342D01*
X181242858Y-126974342D02*
X181242858Y-126783866D01*
X181242858Y-126783866D02*
X181195239Y-126688628D01*
X181195239Y-126688628D02*
X181147620Y-126641009D01*
X181147620Y-126641009D02*
X181052382Y-126593390D01*
X182100001Y-126498152D02*
X182100001Y-127164819D01*
X181861906Y-126117200D02*
X181623811Y-126831485D01*
X181623811Y-126831485D02*
X182242858Y-126831485D01*
X182623811Y-127164819D02*
X182623811Y-126498152D01*
X182623811Y-126593390D02*
X182671430Y-126545771D01*
X182671430Y-126545771D02*
X182766668Y-126498152D01*
X182766668Y-126498152D02*
X182909525Y-126498152D01*
X182909525Y-126498152D02*
X183004763Y-126545771D01*
X183004763Y-126545771D02*
X183052382Y-126641009D01*
X183052382Y-126641009D02*
X183052382Y-127164819D01*
X183052382Y-126641009D02*
X183100001Y-126545771D01*
X183100001Y-126545771D02*
X183195239Y-126498152D01*
X183195239Y-126498152D02*
X183338096Y-126498152D01*
X183338096Y-126498152D02*
X183433335Y-126545771D01*
X183433335Y-126545771D02*
X183480954Y-126641009D01*
X183480954Y-126641009D02*
X183480954Y-127164819D01*
X183957144Y-127164819D02*
X183957144Y-126498152D01*
X183957144Y-126593390D02*
X184004763Y-126545771D01*
X184004763Y-126545771D02*
X184100001Y-126498152D01*
X184100001Y-126498152D02*
X184242858Y-126498152D01*
X184242858Y-126498152D02*
X184338096Y-126545771D01*
X184338096Y-126545771D02*
X184385715Y-126641009D01*
X184385715Y-126641009D02*
X184385715Y-127164819D01*
X184385715Y-126641009D02*
X184433334Y-126545771D01*
X184433334Y-126545771D02*
X184528572Y-126498152D01*
X184528572Y-126498152D02*
X184671429Y-126498152D01*
X184671429Y-126498152D02*
X184766668Y-126545771D01*
X184766668Y-126545771D02*
X184814287Y-126641009D01*
X184814287Y-126641009D02*
X184814287Y-127164819D01*
X161304285Y-39604819D02*
X161304285Y-38604819D01*
X161304285Y-38604819D02*
X161637618Y-39319104D01*
X161637618Y-39319104D02*
X161970951Y-38604819D01*
X161970951Y-38604819D02*
X161970951Y-39604819D01*
X162875713Y-39604819D02*
X162875713Y-39081009D01*
X162875713Y-39081009D02*
X162828094Y-38985771D01*
X162828094Y-38985771D02*
X162732856Y-38938152D01*
X162732856Y-38938152D02*
X162542380Y-38938152D01*
X162542380Y-38938152D02*
X162447142Y-38985771D01*
X162875713Y-39557200D02*
X162780475Y-39604819D01*
X162780475Y-39604819D02*
X162542380Y-39604819D01*
X162542380Y-39604819D02*
X162447142Y-39557200D01*
X162447142Y-39557200D02*
X162399523Y-39461961D01*
X162399523Y-39461961D02*
X162399523Y-39366723D01*
X162399523Y-39366723D02*
X162447142Y-39271485D01*
X162447142Y-39271485D02*
X162542380Y-39223866D01*
X162542380Y-39223866D02*
X162780475Y-39223866D01*
X162780475Y-39223866D02*
X162875713Y-39176247D01*
X163256666Y-38938152D02*
X163494761Y-39604819D01*
X163732856Y-38938152D02*
X163494761Y-39604819D01*
X163494761Y-39604819D02*
X163399523Y-39842914D01*
X163399523Y-39842914D02*
X163351904Y-39890533D01*
X163351904Y-39890533D02*
X163256666Y-39938152D01*
X164828095Y-38700057D02*
X164875714Y-38652438D01*
X164875714Y-38652438D02*
X164970952Y-38604819D01*
X164970952Y-38604819D02*
X165209047Y-38604819D01*
X165209047Y-38604819D02*
X165304285Y-38652438D01*
X165304285Y-38652438D02*
X165351904Y-38700057D01*
X165351904Y-38700057D02*
X165399523Y-38795295D01*
X165399523Y-38795295D02*
X165399523Y-38890533D01*
X165399523Y-38890533D02*
X165351904Y-39033390D01*
X165351904Y-39033390D02*
X164780476Y-39604819D01*
X164780476Y-39604819D02*
X165399523Y-39604819D01*
X165970952Y-39033390D02*
X165875714Y-38985771D01*
X165875714Y-38985771D02*
X165828095Y-38938152D01*
X165828095Y-38938152D02*
X165780476Y-38842914D01*
X165780476Y-38842914D02*
X165780476Y-38795295D01*
X165780476Y-38795295D02*
X165828095Y-38700057D01*
X165828095Y-38700057D02*
X165875714Y-38652438D01*
X165875714Y-38652438D02*
X165970952Y-38604819D01*
X165970952Y-38604819D02*
X166161428Y-38604819D01*
X166161428Y-38604819D02*
X166256666Y-38652438D01*
X166256666Y-38652438D02*
X166304285Y-38700057D01*
X166304285Y-38700057D02*
X166351904Y-38795295D01*
X166351904Y-38795295D02*
X166351904Y-38842914D01*
X166351904Y-38842914D02*
X166304285Y-38938152D01*
X166304285Y-38938152D02*
X166256666Y-38985771D01*
X166256666Y-38985771D02*
X166161428Y-39033390D01*
X166161428Y-39033390D02*
X165970952Y-39033390D01*
X165970952Y-39033390D02*
X165875714Y-39081009D01*
X165875714Y-39081009D02*
X165828095Y-39128628D01*
X165828095Y-39128628D02*
X165780476Y-39223866D01*
X165780476Y-39223866D02*
X165780476Y-39414342D01*
X165780476Y-39414342D02*
X165828095Y-39509580D01*
X165828095Y-39509580D02*
X165875714Y-39557200D01*
X165875714Y-39557200D02*
X165970952Y-39604819D01*
X165970952Y-39604819D02*
X166161428Y-39604819D01*
X166161428Y-39604819D02*
X166256666Y-39557200D01*
X166256666Y-39557200D02*
X166304285Y-39509580D01*
X166304285Y-39509580D02*
X166351904Y-39414342D01*
X166351904Y-39414342D02*
X166351904Y-39223866D01*
X166351904Y-39223866D02*
X166304285Y-39128628D01*
X166304285Y-39128628D02*
X166256666Y-39081009D01*
X166256666Y-39081009D02*
X166161428Y-39033390D01*
X167494762Y-38700057D02*
X167542381Y-38652438D01*
X167542381Y-38652438D02*
X167637619Y-38604819D01*
X167637619Y-38604819D02*
X167875714Y-38604819D01*
X167875714Y-38604819D02*
X167970952Y-38652438D01*
X167970952Y-38652438D02*
X168018571Y-38700057D01*
X168018571Y-38700057D02*
X168066190Y-38795295D01*
X168066190Y-38795295D02*
X168066190Y-38890533D01*
X168066190Y-38890533D02*
X168018571Y-39033390D01*
X168018571Y-39033390D02*
X167447143Y-39604819D01*
X167447143Y-39604819D02*
X168066190Y-39604819D01*
X168685238Y-38604819D02*
X168780476Y-38604819D01*
X168780476Y-38604819D02*
X168875714Y-38652438D01*
X168875714Y-38652438D02*
X168923333Y-38700057D01*
X168923333Y-38700057D02*
X168970952Y-38795295D01*
X168970952Y-38795295D02*
X169018571Y-38985771D01*
X169018571Y-38985771D02*
X169018571Y-39223866D01*
X169018571Y-39223866D02*
X168970952Y-39414342D01*
X168970952Y-39414342D02*
X168923333Y-39509580D01*
X168923333Y-39509580D02*
X168875714Y-39557200D01*
X168875714Y-39557200D02*
X168780476Y-39604819D01*
X168780476Y-39604819D02*
X168685238Y-39604819D01*
X168685238Y-39604819D02*
X168590000Y-39557200D01*
X168590000Y-39557200D02*
X168542381Y-39509580D01*
X168542381Y-39509580D02*
X168494762Y-39414342D01*
X168494762Y-39414342D02*
X168447143Y-39223866D01*
X168447143Y-39223866D02*
X168447143Y-38985771D01*
X168447143Y-38985771D02*
X168494762Y-38795295D01*
X168494762Y-38795295D02*
X168542381Y-38700057D01*
X168542381Y-38700057D02*
X168590000Y-38652438D01*
X168590000Y-38652438D02*
X168685238Y-38604819D01*
X169399524Y-38700057D02*
X169447143Y-38652438D01*
X169447143Y-38652438D02*
X169542381Y-38604819D01*
X169542381Y-38604819D02*
X169780476Y-38604819D01*
X169780476Y-38604819D02*
X169875714Y-38652438D01*
X169875714Y-38652438D02*
X169923333Y-38700057D01*
X169923333Y-38700057D02*
X169970952Y-38795295D01*
X169970952Y-38795295D02*
X169970952Y-38890533D01*
X169970952Y-38890533D02*
X169923333Y-39033390D01*
X169923333Y-39033390D02*
X169351905Y-39604819D01*
X169351905Y-39604819D02*
X169970952Y-39604819D01*
X170875714Y-38604819D02*
X170399524Y-38604819D01*
X170399524Y-38604819D02*
X170351905Y-39081009D01*
X170351905Y-39081009D02*
X170399524Y-39033390D01*
X170399524Y-39033390D02*
X170494762Y-38985771D01*
X170494762Y-38985771D02*
X170732857Y-38985771D01*
X170732857Y-38985771D02*
X170828095Y-39033390D01*
X170828095Y-39033390D02*
X170875714Y-39081009D01*
X170875714Y-39081009D02*
X170923333Y-39176247D01*
X170923333Y-39176247D02*
X170923333Y-39414342D01*
X170923333Y-39414342D02*
X170875714Y-39509580D01*
X170875714Y-39509580D02*
X170828095Y-39557200D01*
X170828095Y-39557200D02*
X170732857Y-39604819D01*
X170732857Y-39604819D02*
X170494762Y-39604819D01*
X170494762Y-39604819D02*
X170399524Y-39557200D01*
X170399524Y-39557200D02*
X170351905Y-39509580D01*
X190034152Y-82986285D02*
X190319866Y-83748189D01*
X190319866Y-83748189D02*
X190605580Y-82986285D01*
X190367485Y-82605332D02*
X190367485Y-81748190D01*
X190700819Y-80843428D02*
X190700819Y-81414856D01*
X190700819Y-81129142D02*
X189700819Y-81129142D01*
X189700819Y-81129142D02*
X189843676Y-81224380D01*
X189843676Y-81224380D02*
X189938914Y-81319618D01*
X189938914Y-81319618D02*
X189986533Y-81414856D01*
X189700819Y-80224380D02*
X189700819Y-80129142D01*
X189700819Y-80129142D02*
X189748438Y-80033904D01*
X189748438Y-80033904D02*
X189796057Y-79986285D01*
X189796057Y-79986285D02*
X189891295Y-79938666D01*
X189891295Y-79938666D02*
X190081771Y-79891047D01*
X190081771Y-79891047D02*
X190319866Y-79891047D01*
X190319866Y-79891047D02*
X190510342Y-79938666D01*
X190510342Y-79938666D02*
X190605580Y-79986285D01*
X190605580Y-79986285D02*
X190653200Y-80033904D01*
X190653200Y-80033904D02*
X190700819Y-80129142D01*
X190700819Y-80129142D02*
X190700819Y-80224380D01*
X190700819Y-80224380D02*
X190653200Y-80319618D01*
X190653200Y-80319618D02*
X190605580Y-80367237D01*
X190605580Y-80367237D02*
X190510342Y-80414856D01*
X190510342Y-80414856D02*
X190319866Y-80462475D01*
X190319866Y-80462475D02*
X190081771Y-80462475D01*
X190081771Y-80462475D02*
X189891295Y-80414856D01*
X189891295Y-80414856D02*
X189796057Y-80367237D01*
X189796057Y-80367237D02*
X189748438Y-80319618D01*
X189748438Y-80319618D02*
X189700819Y-80224380D01*
X190700819Y-79462475D02*
X189700819Y-79462475D01*
X190700819Y-78891047D02*
X190129390Y-79319618D01*
X189700819Y-78891047D02*
X190272247Y-79462475D01*
X190700819Y-78510094D02*
X190700819Y-78271999D01*
X190700819Y-78271999D02*
X190510342Y-78271999D01*
X190510342Y-78271999D02*
X190462723Y-78367237D01*
X190462723Y-78367237D02*
X190367485Y-78462475D01*
X190367485Y-78462475D02*
X190224628Y-78510094D01*
X190224628Y-78510094D02*
X189986533Y-78510094D01*
X189986533Y-78510094D02*
X189843676Y-78462475D01*
X189843676Y-78462475D02*
X189748438Y-78367237D01*
X189748438Y-78367237D02*
X189700819Y-78224380D01*
X189700819Y-78224380D02*
X189700819Y-78033904D01*
X189700819Y-78033904D02*
X189748438Y-77891047D01*
X189748438Y-77891047D02*
X189843676Y-77795809D01*
X189843676Y-77795809D02*
X189986533Y-77748190D01*
X189986533Y-77748190D02*
X190224628Y-77748190D01*
X190224628Y-77748190D02*
X190367485Y-77795809D01*
X190367485Y-77795809D02*
X190462723Y-77891047D01*
X190462723Y-77891047D02*
X190510342Y-77986285D01*
X190510342Y-77986285D02*
X190700819Y-77986285D01*
X190700819Y-77986285D02*
X190700819Y-77748190D01*
X164132000Y-118930057D02*
X164179619Y-118882438D01*
X164179619Y-118882438D02*
X164274857Y-118834819D01*
X164274857Y-118834819D02*
X164512952Y-118834819D01*
X164512952Y-118834819D02*
X164608190Y-118882438D01*
X164608190Y-118882438D02*
X164655809Y-118930057D01*
X164655809Y-118930057D02*
X164703428Y-119025295D01*
X164703428Y-119025295D02*
X164703428Y-119120533D01*
X164703428Y-119120533D02*
X164655809Y-119263390D01*
X164655809Y-119263390D02*
X164084381Y-119834819D01*
X164084381Y-119834819D02*
X164703428Y-119834819D01*
X165608190Y-118834819D02*
X165132000Y-118834819D01*
X165132000Y-118834819D02*
X165084381Y-119311009D01*
X165084381Y-119311009D02*
X165132000Y-119263390D01*
X165132000Y-119263390D02*
X165227238Y-119215771D01*
X165227238Y-119215771D02*
X165465333Y-119215771D01*
X165465333Y-119215771D02*
X165560571Y-119263390D01*
X165560571Y-119263390D02*
X165608190Y-119311009D01*
X165608190Y-119311009D02*
X165655809Y-119406247D01*
X165655809Y-119406247D02*
X165655809Y-119644342D01*
X165655809Y-119644342D02*
X165608190Y-119739580D01*
X165608190Y-119739580D02*
X165560571Y-119787200D01*
X165560571Y-119787200D02*
X165465333Y-119834819D01*
X165465333Y-119834819D02*
X165227238Y-119834819D01*
X165227238Y-119834819D02*
X165132000Y-119787200D01*
X165132000Y-119787200D02*
X165084381Y-119739580D01*
X166274857Y-118834819D02*
X166370095Y-118834819D01*
X166370095Y-118834819D02*
X166465333Y-118882438D01*
X166465333Y-118882438D02*
X166512952Y-118930057D01*
X166512952Y-118930057D02*
X166560571Y-119025295D01*
X166560571Y-119025295D02*
X166608190Y-119215771D01*
X166608190Y-119215771D02*
X166608190Y-119453866D01*
X166608190Y-119453866D02*
X166560571Y-119644342D01*
X166560571Y-119644342D02*
X166512952Y-119739580D01*
X166512952Y-119739580D02*
X166465333Y-119787200D01*
X166465333Y-119787200D02*
X166370095Y-119834819D01*
X166370095Y-119834819D02*
X166274857Y-119834819D01*
X166274857Y-119834819D02*
X166179619Y-119787200D01*
X166179619Y-119787200D02*
X166132000Y-119739580D01*
X166132000Y-119739580D02*
X166084381Y-119644342D01*
X166084381Y-119644342D02*
X166036762Y-119453866D01*
X166036762Y-119453866D02*
X166036762Y-119215771D01*
X166036762Y-119215771D02*
X166084381Y-119025295D01*
X166084381Y-119025295D02*
X166132000Y-118930057D01*
X166132000Y-118930057D02*
X166179619Y-118882438D01*
X166179619Y-118882438D02*
X166274857Y-118834819D01*
X166989143Y-119834819D02*
X167227238Y-119834819D01*
X167227238Y-119834819D02*
X167227238Y-119644342D01*
X167227238Y-119644342D02*
X167132000Y-119596723D01*
X167132000Y-119596723D02*
X167036762Y-119501485D01*
X167036762Y-119501485D02*
X166989143Y-119358628D01*
X166989143Y-119358628D02*
X166989143Y-119120533D01*
X166989143Y-119120533D02*
X167036762Y-118977676D01*
X167036762Y-118977676D02*
X167132000Y-118882438D01*
X167132000Y-118882438D02*
X167274857Y-118834819D01*
X167274857Y-118834819D02*
X167465333Y-118834819D01*
X167465333Y-118834819D02*
X167608190Y-118882438D01*
X167608190Y-118882438D02*
X167703428Y-118977676D01*
X167703428Y-118977676D02*
X167751047Y-119120533D01*
X167751047Y-119120533D02*
X167751047Y-119358628D01*
X167751047Y-119358628D02*
X167703428Y-119501485D01*
X167703428Y-119501485D02*
X167608190Y-119596723D01*
X167608190Y-119596723D02*
X167512952Y-119644342D01*
X167512952Y-119644342D02*
X167512952Y-119834819D01*
X167512952Y-119834819D02*
X167751047Y-119834819D01*
X168084381Y-119501485D02*
X168941524Y-119501485D01*
X169322476Y-119168152D02*
X170084381Y-119453866D01*
X170084381Y-119453866D02*
X169322476Y-119739580D01*
X165100476Y-125224819D02*
X165100476Y-124224819D01*
X165100476Y-124701009D02*
X165671904Y-124701009D01*
X165671904Y-125224819D02*
X165671904Y-124224819D01*
X166148095Y-124843866D02*
X166910000Y-124843866D01*
X167386190Y-125224819D02*
X167386190Y-124224819D01*
X167386190Y-124701009D02*
X167957618Y-124701009D01*
X167957618Y-125224819D02*
X167957618Y-124224819D01*
X168576666Y-125224819D02*
X168481428Y-125177200D01*
X168481428Y-125177200D02*
X168433809Y-125129580D01*
X168433809Y-125129580D02*
X168386190Y-125034342D01*
X168386190Y-125034342D02*
X168386190Y-124748628D01*
X168386190Y-124748628D02*
X168433809Y-124653390D01*
X168433809Y-124653390D02*
X168481428Y-124605771D01*
X168481428Y-124605771D02*
X168576666Y-124558152D01*
X168576666Y-124558152D02*
X168719523Y-124558152D01*
X168719523Y-124558152D02*
X168814761Y-124605771D01*
X168814761Y-124605771D02*
X168862380Y-124653390D01*
X168862380Y-124653390D02*
X168909999Y-124748628D01*
X168909999Y-124748628D02*
X168909999Y-125034342D01*
X168909999Y-125034342D02*
X168862380Y-125129580D01*
X168862380Y-125129580D02*
X168814761Y-125177200D01*
X168814761Y-125177200D02*
X168719523Y-125224819D01*
X168719523Y-125224819D02*
X168576666Y-125224819D01*
X169481428Y-125224819D02*
X169386190Y-125177200D01*
X169386190Y-125177200D02*
X169338571Y-125081961D01*
X169338571Y-125081961D02*
X169338571Y-124224819D01*
X170243333Y-125177200D02*
X170148095Y-125224819D01*
X170148095Y-125224819D02*
X169957619Y-125224819D01*
X169957619Y-125224819D02*
X169862381Y-125177200D01*
X169862381Y-125177200D02*
X169814762Y-125081961D01*
X169814762Y-125081961D02*
X169814762Y-124701009D01*
X169814762Y-124701009D02*
X169862381Y-124605771D01*
X169862381Y-124605771D02*
X169957619Y-124558152D01*
X169957619Y-124558152D02*
X170148095Y-124558152D01*
X170148095Y-124558152D02*
X170243333Y-124605771D01*
X170243333Y-124605771D02*
X170290952Y-124701009D01*
X170290952Y-124701009D02*
X170290952Y-124796247D01*
X170290952Y-124796247D02*
X169814762Y-124891485D01*
X171481429Y-125224819D02*
X171481429Y-124224819D01*
X171481429Y-124224819D02*
X171719524Y-124224819D01*
X171719524Y-124224819D02*
X171862381Y-124272438D01*
X171862381Y-124272438D02*
X171957619Y-124367676D01*
X171957619Y-124367676D02*
X172005238Y-124462914D01*
X172005238Y-124462914D02*
X172052857Y-124653390D01*
X172052857Y-124653390D02*
X172052857Y-124796247D01*
X172052857Y-124796247D02*
X172005238Y-124986723D01*
X172005238Y-124986723D02*
X171957619Y-125081961D01*
X171957619Y-125081961D02*
X171862381Y-125177200D01*
X171862381Y-125177200D02*
X171719524Y-125224819D01*
X171719524Y-125224819D02*
X171481429Y-125224819D01*
X172481429Y-125224819D02*
X172481429Y-124558152D01*
X172481429Y-124224819D02*
X172433810Y-124272438D01*
X172433810Y-124272438D02*
X172481429Y-124320057D01*
X172481429Y-124320057D02*
X172529048Y-124272438D01*
X172529048Y-124272438D02*
X172481429Y-124224819D01*
X172481429Y-124224819D02*
X172481429Y-124320057D01*
X172910000Y-125177200D02*
X173005238Y-125224819D01*
X173005238Y-125224819D02*
X173195714Y-125224819D01*
X173195714Y-125224819D02*
X173290952Y-125177200D01*
X173290952Y-125177200D02*
X173338571Y-125081961D01*
X173338571Y-125081961D02*
X173338571Y-125034342D01*
X173338571Y-125034342D02*
X173290952Y-124939104D01*
X173290952Y-124939104D02*
X173195714Y-124891485D01*
X173195714Y-124891485D02*
X173052857Y-124891485D01*
X173052857Y-124891485D02*
X172957619Y-124843866D01*
X172957619Y-124843866D02*
X172910000Y-124748628D01*
X172910000Y-124748628D02*
X172910000Y-124701009D01*
X172910000Y-124701009D02*
X172957619Y-124605771D01*
X172957619Y-124605771D02*
X173052857Y-124558152D01*
X173052857Y-124558152D02*
X173195714Y-124558152D01*
X173195714Y-124558152D02*
X173290952Y-124605771D01*
X173624286Y-124558152D02*
X174005238Y-124558152D01*
X173767143Y-124224819D02*
X173767143Y-125081961D01*
X173767143Y-125081961D02*
X173814762Y-125177200D01*
X173814762Y-125177200D02*
X173910000Y-125224819D01*
X173910000Y-125224819D02*
X174005238Y-125224819D01*
X174767143Y-125224819D02*
X174767143Y-124701009D01*
X174767143Y-124701009D02*
X174719524Y-124605771D01*
X174719524Y-124605771D02*
X174624286Y-124558152D01*
X174624286Y-124558152D02*
X174433810Y-124558152D01*
X174433810Y-124558152D02*
X174338572Y-124605771D01*
X174767143Y-125177200D02*
X174671905Y-125224819D01*
X174671905Y-125224819D02*
X174433810Y-125224819D01*
X174433810Y-125224819D02*
X174338572Y-125177200D01*
X174338572Y-125177200D02*
X174290953Y-125081961D01*
X174290953Y-125081961D02*
X174290953Y-124986723D01*
X174290953Y-124986723D02*
X174338572Y-124891485D01*
X174338572Y-124891485D02*
X174433810Y-124843866D01*
X174433810Y-124843866D02*
X174671905Y-124843866D01*
X174671905Y-124843866D02*
X174767143Y-124796247D01*
X175243334Y-124558152D02*
X175243334Y-125224819D01*
X175243334Y-124653390D02*
X175290953Y-124605771D01*
X175290953Y-124605771D02*
X175386191Y-124558152D01*
X175386191Y-124558152D02*
X175529048Y-124558152D01*
X175529048Y-124558152D02*
X175624286Y-124605771D01*
X175624286Y-124605771D02*
X175671905Y-124701009D01*
X175671905Y-124701009D02*
X175671905Y-125224819D01*
X176576667Y-125177200D02*
X176481429Y-125224819D01*
X176481429Y-125224819D02*
X176290953Y-125224819D01*
X176290953Y-125224819D02*
X176195715Y-125177200D01*
X176195715Y-125177200D02*
X176148096Y-125129580D01*
X176148096Y-125129580D02*
X176100477Y-125034342D01*
X176100477Y-125034342D02*
X176100477Y-124748628D01*
X176100477Y-124748628D02*
X176148096Y-124653390D01*
X176148096Y-124653390D02*
X176195715Y-124605771D01*
X176195715Y-124605771D02*
X176290953Y-124558152D01*
X176290953Y-124558152D02*
X176481429Y-124558152D01*
X176481429Y-124558152D02*
X176576667Y-124605771D01*
X177386191Y-125177200D02*
X177290953Y-125224819D01*
X177290953Y-125224819D02*
X177100477Y-125224819D01*
X177100477Y-125224819D02*
X177005239Y-125177200D01*
X177005239Y-125177200D02*
X176957620Y-125081961D01*
X176957620Y-125081961D02*
X176957620Y-124701009D01*
X176957620Y-124701009D02*
X177005239Y-124605771D01*
X177005239Y-124605771D02*
X177100477Y-124558152D01*
X177100477Y-124558152D02*
X177290953Y-124558152D01*
X177290953Y-124558152D02*
X177386191Y-124605771D01*
X177386191Y-124605771D02*
X177433810Y-124701009D01*
X177433810Y-124701009D02*
X177433810Y-124796247D01*
X177433810Y-124796247D02*
X176957620Y-124891485D01*
X178624287Y-124701009D02*
X179386192Y-124701009D01*
X179386192Y-124986723D02*
X178624287Y-124986723D01*
X180576668Y-124320057D02*
X180624287Y-124272438D01*
X180624287Y-124272438D02*
X180719525Y-124224819D01*
X180719525Y-124224819D02*
X180957620Y-124224819D01*
X180957620Y-124224819D02*
X181052858Y-124272438D01*
X181052858Y-124272438D02*
X181100477Y-124320057D01*
X181100477Y-124320057D02*
X181148096Y-124415295D01*
X181148096Y-124415295D02*
X181148096Y-124510533D01*
X181148096Y-124510533D02*
X181100477Y-124653390D01*
X181100477Y-124653390D02*
X180529049Y-125224819D01*
X180529049Y-125224819D02*
X181148096Y-125224819D01*
X182005239Y-124224819D02*
X181814763Y-124224819D01*
X181814763Y-124224819D02*
X181719525Y-124272438D01*
X181719525Y-124272438D02*
X181671906Y-124320057D01*
X181671906Y-124320057D02*
X181576668Y-124462914D01*
X181576668Y-124462914D02*
X181529049Y-124653390D01*
X181529049Y-124653390D02*
X181529049Y-125034342D01*
X181529049Y-125034342D02*
X181576668Y-125129580D01*
X181576668Y-125129580D02*
X181624287Y-125177200D01*
X181624287Y-125177200D02*
X181719525Y-125224819D01*
X181719525Y-125224819D02*
X181910001Y-125224819D01*
X181910001Y-125224819D02*
X182005239Y-125177200D01*
X182005239Y-125177200D02*
X182052858Y-125129580D01*
X182052858Y-125129580D02*
X182100477Y-125034342D01*
X182100477Y-125034342D02*
X182100477Y-124796247D01*
X182100477Y-124796247D02*
X182052858Y-124701009D01*
X182052858Y-124701009D02*
X182005239Y-124653390D01*
X182005239Y-124653390D02*
X181910001Y-124605771D01*
X181910001Y-124605771D02*
X181719525Y-124605771D01*
X181719525Y-124605771D02*
X181624287Y-124653390D01*
X181624287Y-124653390D02*
X181576668Y-124701009D01*
X181576668Y-124701009D02*
X181529049Y-124796247D01*
X182529049Y-125224819D02*
X182529049Y-124558152D01*
X182529049Y-124653390D02*
X182576668Y-124605771D01*
X182576668Y-124605771D02*
X182671906Y-124558152D01*
X182671906Y-124558152D02*
X182814763Y-124558152D01*
X182814763Y-124558152D02*
X182910001Y-124605771D01*
X182910001Y-124605771D02*
X182957620Y-124701009D01*
X182957620Y-124701009D02*
X182957620Y-125224819D01*
X182957620Y-124701009D02*
X183005239Y-124605771D01*
X183005239Y-124605771D02*
X183100477Y-124558152D01*
X183100477Y-124558152D02*
X183243334Y-124558152D01*
X183243334Y-124558152D02*
X183338573Y-124605771D01*
X183338573Y-124605771D02*
X183386192Y-124701009D01*
X183386192Y-124701009D02*
X183386192Y-125224819D01*
X183862382Y-125224819D02*
X183862382Y-124558152D01*
X183862382Y-124653390D02*
X183910001Y-124605771D01*
X183910001Y-124605771D02*
X184005239Y-124558152D01*
X184005239Y-124558152D02*
X184148096Y-124558152D01*
X184148096Y-124558152D02*
X184243334Y-124605771D01*
X184243334Y-124605771D02*
X184290953Y-124701009D01*
X184290953Y-124701009D02*
X184290953Y-125224819D01*
X184290953Y-124701009D02*
X184338572Y-124605771D01*
X184338572Y-124605771D02*
X184433810Y-124558152D01*
X184433810Y-124558152D02*
X184576667Y-124558152D01*
X184576667Y-124558152D02*
X184671906Y-124605771D01*
X184671906Y-124605771D02*
X184719525Y-124701009D01*
X184719525Y-124701009D02*
X184719525Y-125224819D01*
X159345713Y-37844819D02*
X159345713Y-36844819D01*
X159345713Y-37225771D02*
X159440951Y-37178152D01*
X159440951Y-37178152D02*
X159631427Y-37178152D01*
X159631427Y-37178152D02*
X159726665Y-37225771D01*
X159726665Y-37225771D02*
X159774284Y-37273390D01*
X159774284Y-37273390D02*
X159821903Y-37368628D01*
X159821903Y-37368628D02*
X159821903Y-37654342D01*
X159821903Y-37654342D02*
X159774284Y-37749580D01*
X159774284Y-37749580D02*
X159726665Y-37797200D01*
X159726665Y-37797200D02*
X159631427Y-37844819D01*
X159631427Y-37844819D02*
X159440951Y-37844819D01*
X159440951Y-37844819D02*
X159345713Y-37797200D01*
X160155237Y-37178152D02*
X160393332Y-37844819D01*
X160631427Y-37178152D02*
X160393332Y-37844819D01*
X160393332Y-37844819D02*
X160298094Y-38082914D01*
X160298094Y-38082914D02*
X160250475Y-38130533D01*
X160250475Y-38130533D02*
X160155237Y-38178152D01*
X161726666Y-37797200D02*
X161869523Y-37844819D01*
X161869523Y-37844819D02*
X162107618Y-37844819D01*
X162107618Y-37844819D02*
X162202856Y-37797200D01*
X162202856Y-37797200D02*
X162250475Y-37749580D01*
X162250475Y-37749580D02*
X162298094Y-37654342D01*
X162298094Y-37654342D02*
X162298094Y-37559104D01*
X162298094Y-37559104D02*
X162250475Y-37463866D01*
X162250475Y-37463866D02*
X162202856Y-37416247D01*
X162202856Y-37416247D02*
X162107618Y-37368628D01*
X162107618Y-37368628D02*
X161917142Y-37321009D01*
X161917142Y-37321009D02*
X161821904Y-37273390D01*
X161821904Y-37273390D02*
X161774285Y-37225771D01*
X161774285Y-37225771D02*
X161726666Y-37130533D01*
X161726666Y-37130533D02*
X161726666Y-37035295D01*
X161726666Y-37035295D02*
X161774285Y-36940057D01*
X161774285Y-36940057D02*
X161821904Y-36892438D01*
X161821904Y-36892438D02*
X161917142Y-36844819D01*
X161917142Y-36844819D02*
X162155237Y-36844819D01*
X162155237Y-36844819D02*
X162298094Y-36892438D01*
X163155237Y-37797200D02*
X163059999Y-37844819D01*
X163059999Y-37844819D02*
X162869523Y-37844819D01*
X162869523Y-37844819D02*
X162774285Y-37797200D01*
X162774285Y-37797200D02*
X162726666Y-37749580D01*
X162726666Y-37749580D02*
X162679047Y-37654342D01*
X162679047Y-37654342D02*
X162679047Y-37368628D01*
X162679047Y-37368628D02*
X162726666Y-37273390D01*
X162726666Y-37273390D02*
X162774285Y-37225771D01*
X162774285Y-37225771D02*
X162869523Y-37178152D01*
X162869523Y-37178152D02*
X163059999Y-37178152D01*
X163059999Y-37178152D02*
X163155237Y-37225771D01*
X163726666Y-37844819D02*
X163631428Y-37797200D01*
X163631428Y-37797200D02*
X163583809Y-37749580D01*
X163583809Y-37749580D02*
X163536190Y-37654342D01*
X163536190Y-37654342D02*
X163536190Y-37368628D01*
X163536190Y-37368628D02*
X163583809Y-37273390D01*
X163583809Y-37273390D02*
X163631428Y-37225771D01*
X163631428Y-37225771D02*
X163726666Y-37178152D01*
X163726666Y-37178152D02*
X163869523Y-37178152D01*
X163869523Y-37178152D02*
X163964761Y-37225771D01*
X163964761Y-37225771D02*
X164012380Y-37273390D01*
X164012380Y-37273390D02*
X164059999Y-37368628D01*
X164059999Y-37368628D02*
X164059999Y-37654342D01*
X164059999Y-37654342D02*
X164012380Y-37749580D01*
X164012380Y-37749580D02*
X163964761Y-37797200D01*
X163964761Y-37797200D02*
X163869523Y-37844819D01*
X163869523Y-37844819D02*
X163726666Y-37844819D01*
X164345714Y-37178152D02*
X164726666Y-37178152D01*
X164488571Y-36844819D02*
X164488571Y-37701961D01*
X164488571Y-37701961D02*
X164536190Y-37797200D01*
X164536190Y-37797200D02*
X164631428Y-37844819D01*
X164631428Y-37844819D02*
X164726666Y-37844819D01*
X164917143Y-37178152D02*
X165298095Y-37178152D01*
X165060000Y-36844819D02*
X165060000Y-37701961D01*
X165060000Y-37701961D02*
X165107619Y-37797200D01*
X165107619Y-37797200D02*
X165202857Y-37844819D01*
X165202857Y-37844819D02*
X165298095Y-37844819D01*
X166393334Y-37844819D02*
X166393334Y-36844819D01*
X166964762Y-37844819D02*
X166536191Y-37273390D01*
X166964762Y-36844819D02*
X166393334Y-37416247D01*
X167393334Y-37844819D02*
X167393334Y-37178152D01*
X167393334Y-36844819D02*
X167345715Y-36892438D01*
X167345715Y-36892438D02*
X167393334Y-36940057D01*
X167393334Y-36940057D02*
X167440953Y-36892438D01*
X167440953Y-36892438D02*
X167393334Y-36844819D01*
X167393334Y-36844819D02*
X167393334Y-36940057D01*
X168012381Y-37844819D02*
X167917143Y-37797200D01*
X167917143Y-37797200D02*
X167869524Y-37701961D01*
X167869524Y-37701961D02*
X167869524Y-36844819D01*
X168821905Y-37844819D02*
X168821905Y-36844819D01*
X168821905Y-37797200D02*
X168726667Y-37844819D01*
X168726667Y-37844819D02*
X168536191Y-37844819D01*
X168536191Y-37844819D02*
X168440953Y-37797200D01*
X168440953Y-37797200D02*
X168393334Y-37749580D01*
X168393334Y-37749580D02*
X168345715Y-37654342D01*
X168345715Y-37654342D02*
X168345715Y-37368628D01*
X168345715Y-37368628D02*
X168393334Y-37273390D01*
X168393334Y-37273390D02*
X168440953Y-37225771D01*
X168440953Y-37225771D02*
X168536191Y-37178152D01*
X168536191Y-37178152D02*
X168726667Y-37178152D01*
X168726667Y-37178152D02*
X168821905Y-37225771D01*
X169726667Y-37844819D02*
X169726667Y-37321009D01*
X169726667Y-37321009D02*
X169679048Y-37225771D01*
X169679048Y-37225771D02*
X169583810Y-37178152D01*
X169583810Y-37178152D02*
X169393334Y-37178152D01*
X169393334Y-37178152D02*
X169298096Y-37225771D01*
X169726667Y-37797200D02*
X169631429Y-37844819D01*
X169631429Y-37844819D02*
X169393334Y-37844819D01*
X169393334Y-37844819D02*
X169298096Y-37797200D01*
X169298096Y-37797200D02*
X169250477Y-37701961D01*
X169250477Y-37701961D02*
X169250477Y-37606723D01*
X169250477Y-37606723D02*
X169298096Y-37511485D01*
X169298096Y-37511485D02*
X169393334Y-37463866D01*
X169393334Y-37463866D02*
X169631429Y-37463866D01*
X169631429Y-37463866D02*
X169726667Y-37416247D01*
X170345715Y-37844819D02*
X170250477Y-37797200D01*
X170250477Y-37797200D02*
X170202858Y-37701961D01*
X170202858Y-37701961D02*
X170202858Y-36844819D01*
X170869525Y-37844819D02*
X170774287Y-37797200D01*
X170774287Y-37797200D02*
X170726668Y-37701961D01*
X170726668Y-37701961D02*
X170726668Y-36844819D01*
X186800476Y-37008152D02*
X187038571Y-37674819D01*
X187038571Y-37674819D02*
X187276666Y-37008152D01*
X188610000Y-36674819D02*
X188705238Y-36674819D01*
X188705238Y-36674819D02*
X188800476Y-36722438D01*
X188800476Y-36722438D02*
X188848095Y-36770057D01*
X188848095Y-36770057D02*
X188895714Y-36865295D01*
X188895714Y-36865295D02*
X188943333Y-37055771D01*
X188943333Y-37055771D02*
X188943333Y-37293866D01*
X188943333Y-37293866D02*
X188895714Y-37484342D01*
X188895714Y-37484342D02*
X188848095Y-37579580D01*
X188848095Y-37579580D02*
X188800476Y-37627200D01*
X188800476Y-37627200D02*
X188705238Y-37674819D01*
X188705238Y-37674819D02*
X188610000Y-37674819D01*
X188610000Y-37674819D02*
X188514762Y-37627200D01*
X188514762Y-37627200D02*
X188467143Y-37579580D01*
X188467143Y-37579580D02*
X188419524Y-37484342D01*
X188419524Y-37484342D02*
X188371905Y-37293866D01*
X188371905Y-37293866D02*
X188371905Y-37055771D01*
X188371905Y-37055771D02*
X188419524Y-36865295D01*
X188419524Y-36865295D02*
X188467143Y-36770057D01*
X188467143Y-36770057D02*
X188514762Y-36722438D01*
X188514762Y-36722438D02*
X188610000Y-36674819D01*
X189371905Y-37579580D02*
X189419524Y-37627200D01*
X189419524Y-37627200D02*
X189371905Y-37674819D01*
X189371905Y-37674819D02*
X189324286Y-37627200D01*
X189324286Y-37627200D02*
X189371905Y-37579580D01*
X189371905Y-37579580D02*
X189371905Y-37674819D01*
X190324285Y-36674819D02*
X189848095Y-36674819D01*
X189848095Y-36674819D02*
X189800476Y-37151009D01*
X189800476Y-37151009D02*
X189848095Y-37103390D01*
X189848095Y-37103390D02*
X189943333Y-37055771D01*
X189943333Y-37055771D02*
X190181428Y-37055771D01*
X190181428Y-37055771D02*
X190276666Y-37103390D01*
X190276666Y-37103390D02*
X190324285Y-37151009D01*
X190324285Y-37151009D02*
X190371904Y-37246247D01*
X190371904Y-37246247D02*
X190371904Y-37484342D01*
X190371904Y-37484342D02*
X190324285Y-37579580D01*
X190324285Y-37579580D02*
X190276666Y-37627200D01*
X190276666Y-37627200D02*
X190181428Y-37674819D01*
X190181428Y-37674819D02*
X189943333Y-37674819D01*
X189943333Y-37674819D02*
X189848095Y-37627200D01*
X189848095Y-37627200D02*
X189800476Y-37579580D01*
X176368571Y-37389104D02*
X176844761Y-37389104D01*
X176273333Y-37674819D02*
X176606666Y-36674819D01*
X176606666Y-36674819D02*
X176939999Y-37674819D01*
X177273333Y-37008152D02*
X177273333Y-37674819D01*
X177273333Y-37103390D02*
X177320952Y-37055771D01*
X177320952Y-37055771D02*
X177416190Y-37008152D01*
X177416190Y-37008152D02*
X177559047Y-37008152D01*
X177559047Y-37008152D02*
X177654285Y-37055771D01*
X177654285Y-37055771D02*
X177701904Y-37151009D01*
X177701904Y-37151009D02*
X177701904Y-37674819D01*
X178606666Y-37674819D02*
X178606666Y-37151009D01*
X178606666Y-37151009D02*
X178559047Y-37055771D01*
X178559047Y-37055771D02*
X178463809Y-37008152D01*
X178463809Y-37008152D02*
X178273333Y-37008152D01*
X178273333Y-37008152D02*
X178178095Y-37055771D01*
X178606666Y-37627200D02*
X178511428Y-37674819D01*
X178511428Y-37674819D02*
X178273333Y-37674819D01*
X178273333Y-37674819D02*
X178178095Y-37627200D01*
X178178095Y-37627200D02*
X178130476Y-37531961D01*
X178130476Y-37531961D02*
X178130476Y-37436723D01*
X178130476Y-37436723D02*
X178178095Y-37341485D01*
X178178095Y-37341485D02*
X178273333Y-37293866D01*
X178273333Y-37293866D02*
X178511428Y-37293866D01*
X178511428Y-37293866D02*
X178606666Y-37246247D01*
X179225714Y-37674819D02*
X179130476Y-37627200D01*
X179130476Y-37627200D02*
X179082857Y-37531961D01*
X179082857Y-37531961D02*
X179082857Y-36674819D01*
X179749524Y-37674819D02*
X179654286Y-37627200D01*
X179654286Y-37627200D02*
X179606667Y-37579580D01*
X179606667Y-37579580D02*
X179559048Y-37484342D01*
X179559048Y-37484342D02*
X179559048Y-37198628D01*
X179559048Y-37198628D02*
X179606667Y-37103390D01*
X179606667Y-37103390D02*
X179654286Y-37055771D01*
X179654286Y-37055771D02*
X179749524Y-37008152D01*
X179749524Y-37008152D02*
X179892381Y-37008152D01*
X179892381Y-37008152D02*
X179987619Y-37055771D01*
X179987619Y-37055771D02*
X180035238Y-37103390D01*
X180035238Y-37103390D02*
X180082857Y-37198628D01*
X180082857Y-37198628D02*
X180082857Y-37484342D01*
X180082857Y-37484342D02*
X180035238Y-37579580D01*
X180035238Y-37579580D02*
X179987619Y-37627200D01*
X179987619Y-37627200D02*
X179892381Y-37674819D01*
X179892381Y-37674819D02*
X179749524Y-37674819D01*
X180940000Y-37008152D02*
X180940000Y-37817676D01*
X180940000Y-37817676D02*
X180892381Y-37912914D01*
X180892381Y-37912914D02*
X180844762Y-37960533D01*
X180844762Y-37960533D02*
X180749524Y-38008152D01*
X180749524Y-38008152D02*
X180606667Y-38008152D01*
X180606667Y-38008152D02*
X180511429Y-37960533D01*
X180940000Y-37627200D02*
X180844762Y-37674819D01*
X180844762Y-37674819D02*
X180654286Y-37674819D01*
X180654286Y-37674819D02*
X180559048Y-37627200D01*
X180559048Y-37627200D02*
X180511429Y-37579580D01*
X180511429Y-37579580D02*
X180463810Y-37484342D01*
X180463810Y-37484342D02*
X180463810Y-37198628D01*
X180463810Y-37198628D02*
X180511429Y-37103390D01*
X180511429Y-37103390D02*
X180559048Y-37055771D01*
X180559048Y-37055771D02*
X180654286Y-37008152D01*
X180654286Y-37008152D02*
X180844762Y-37008152D01*
X180844762Y-37008152D02*
X180940000Y-37055771D01*
X182178096Y-37674819D02*
X182178096Y-36674819D01*
X182654286Y-37008152D02*
X182654286Y-37674819D01*
X182654286Y-37103390D02*
X182701905Y-37055771D01*
X182701905Y-37055771D02*
X182797143Y-37008152D01*
X182797143Y-37008152D02*
X182940000Y-37008152D01*
X182940000Y-37008152D02*
X183035238Y-37055771D01*
X183035238Y-37055771D02*
X183082857Y-37151009D01*
X183082857Y-37151009D02*
X183082857Y-37674819D01*
X183559048Y-37008152D02*
X183559048Y-38008152D01*
X183559048Y-37055771D02*
X183654286Y-37008152D01*
X183654286Y-37008152D02*
X183844762Y-37008152D01*
X183844762Y-37008152D02*
X183940000Y-37055771D01*
X183940000Y-37055771D02*
X183987619Y-37103390D01*
X183987619Y-37103390D02*
X184035238Y-37198628D01*
X184035238Y-37198628D02*
X184035238Y-37484342D01*
X184035238Y-37484342D02*
X183987619Y-37579580D01*
X183987619Y-37579580D02*
X183940000Y-37627200D01*
X183940000Y-37627200D02*
X183844762Y-37674819D01*
X183844762Y-37674819D02*
X183654286Y-37674819D01*
X183654286Y-37674819D02*
X183559048Y-37627200D01*
X184892381Y-37008152D02*
X184892381Y-37674819D01*
X184463810Y-37008152D02*
X184463810Y-37531961D01*
X184463810Y-37531961D02*
X184511429Y-37627200D01*
X184511429Y-37627200D02*
X184606667Y-37674819D01*
X184606667Y-37674819D02*
X184749524Y-37674819D01*
X184749524Y-37674819D02*
X184844762Y-37627200D01*
X184844762Y-37627200D02*
X184892381Y-37579580D01*
X185225715Y-37008152D02*
X185606667Y-37008152D01*
X185368572Y-36674819D02*
X185368572Y-37531961D01*
X185368572Y-37531961D02*
X185416191Y-37627200D01*
X185416191Y-37627200D02*
X185511429Y-37674819D01*
X185511429Y-37674819D02*
X185606667Y-37674819D01*
X171015819Y-91258923D02*
X170015819Y-91258923D01*
X170015819Y-91258923D02*
X170730104Y-90925590D01*
X170730104Y-90925590D02*
X170015819Y-90592257D01*
X170015819Y-90592257D02*
X171015819Y-90592257D01*
X171015819Y-89592257D02*
X171015819Y-90163685D01*
X171015819Y-89877971D02*
X170015819Y-89877971D01*
X170015819Y-89877971D02*
X170158676Y-89973209D01*
X170158676Y-89973209D02*
X170253914Y-90068447D01*
X170253914Y-90068447D02*
X170301533Y-90163685D01*
X162131476Y-84824219D02*
X162750523Y-84824219D01*
X162750523Y-84824219D02*
X162417190Y-85205171D01*
X162417190Y-85205171D02*
X162560047Y-85205171D01*
X162560047Y-85205171D02*
X162655285Y-85252790D01*
X162655285Y-85252790D02*
X162702904Y-85300409D01*
X162702904Y-85300409D02*
X162750523Y-85395647D01*
X162750523Y-85395647D02*
X162750523Y-85633742D01*
X162750523Y-85633742D02*
X162702904Y-85728980D01*
X162702904Y-85728980D02*
X162655285Y-85776600D01*
X162655285Y-85776600D02*
X162560047Y-85824219D01*
X162560047Y-85824219D02*
X162274333Y-85824219D01*
X162274333Y-85824219D02*
X162179095Y-85776600D01*
X162179095Y-85776600D02*
X162131476Y-85728980D01*
X163131476Y-84919457D02*
X163179095Y-84871838D01*
X163179095Y-84871838D02*
X163274333Y-84824219D01*
X163274333Y-84824219D02*
X163512428Y-84824219D01*
X163512428Y-84824219D02*
X163607666Y-84871838D01*
X163607666Y-84871838D02*
X163655285Y-84919457D01*
X163655285Y-84919457D02*
X163702904Y-85014695D01*
X163702904Y-85014695D02*
X163702904Y-85109933D01*
X163702904Y-85109933D02*
X163655285Y-85252790D01*
X163655285Y-85252790D02*
X163083857Y-85824219D01*
X163083857Y-85824219D02*
X163702904Y-85824219D01*
X161679095Y-107684219D02*
X161679095Y-108493742D01*
X161679095Y-108493742D02*
X161726714Y-108588980D01*
X161726714Y-108588980D02*
X161774333Y-108636600D01*
X161774333Y-108636600D02*
X161869571Y-108684219D01*
X161869571Y-108684219D02*
X162060047Y-108684219D01*
X162060047Y-108684219D02*
X162155285Y-108636600D01*
X162155285Y-108636600D02*
X162202904Y-108588980D01*
X162202904Y-108588980D02*
X162250523Y-108493742D01*
X162250523Y-108493742D02*
X162250523Y-107684219D01*
X162679095Y-108636600D02*
X162821952Y-108684219D01*
X162821952Y-108684219D02*
X163060047Y-108684219D01*
X163060047Y-108684219D02*
X163155285Y-108636600D01*
X163155285Y-108636600D02*
X163202904Y-108588980D01*
X163202904Y-108588980D02*
X163250523Y-108493742D01*
X163250523Y-108493742D02*
X163250523Y-108398504D01*
X163250523Y-108398504D02*
X163202904Y-108303266D01*
X163202904Y-108303266D02*
X163155285Y-108255647D01*
X163155285Y-108255647D02*
X163060047Y-108208028D01*
X163060047Y-108208028D02*
X162869571Y-108160409D01*
X162869571Y-108160409D02*
X162774333Y-108112790D01*
X162774333Y-108112790D02*
X162726714Y-108065171D01*
X162726714Y-108065171D02*
X162679095Y-107969933D01*
X162679095Y-107969933D02*
X162679095Y-107874695D01*
X162679095Y-107874695D02*
X162726714Y-107779457D01*
X162726714Y-107779457D02*
X162774333Y-107731838D01*
X162774333Y-107731838D02*
X162869571Y-107684219D01*
X162869571Y-107684219D02*
X163107666Y-107684219D01*
X163107666Y-107684219D02*
X163250523Y-107731838D01*
X164012428Y-108160409D02*
X164155285Y-108208028D01*
X164155285Y-108208028D02*
X164202904Y-108255647D01*
X164202904Y-108255647D02*
X164250523Y-108350885D01*
X164250523Y-108350885D02*
X164250523Y-108493742D01*
X164250523Y-108493742D02*
X164202904Y-108588980D01*
X164202904Y-108588980D02*
X164155285Y-108636600D01*
X164155285Y-108636600D02*
X164060047Y-108684219D01*
X164060047Y-108684219D02*
X163679095Y-108684219D01*
X163679095Y-108684219D02*
X163679095Y-107684219D01*
X163679095Y-107684219D02*
X164012428Y-107684219D01*
X164012428Y-107684219D02*
X164107666Y-107731838D01*
X164107666Y-107731838D02*
X164155285Y-107779457D01*
X164155285Y-107779457D02*
X164202904Y-107874695D01*
X164202904Y-107874695D02*
X164202904Y-107969933D01*
X164202904Y-107969933D02*
X164155285Y-108065171D01*
X164155285Y-108065171D02*
X164107666Y-108112790D01*
X164107666Y-108112790D02*
X164012428Y-108160409D01*
X164012428Y-108160409D02*
X163679095Y-108160409D01*
X162131476Y-87364219D02*
X162750523Y-87364219D01*
X162750523Y-87364219D02*
X162417190Y-87745171D01*
X162417190Y-87745171D02*
X162560047Y-87745171D01*
X162560047Y-87745171D02*
X162655285Y-87792790D01*
X162655285Y-87792790D02*
X162702904Y-87840409D01*
X162702904Y-87840409D02*
X162750523Y-87935647D01*
X162750523Y-87935647D02*
X162750523Y-88173742D01*
X162750523Y-88173742D02*
X162702904Y-88268980D01*
X162702904Y-88268980D02*
X162655285Y-88316600D01*
X162655285Y-88316600D02*
X162560047Y-88364219D01*
X162560047Y-88364219D02*
X162274333Y-88364219D01*
X162274333Y-88364219D02*
X162179095Y-88316600D01*
X162179095Y-88316600D02*
X162131476Y-88268980D01*
X163083857Y-87364219D02*
X163702904Y-87364219D01*
X163702904Y-87364219D02*
X163369571Y-87745171D01*
X163369571Y-87745171D02*
X163512428Y-87745171D01*
X163512428Y-87745171D02*
X163607666Y-87792790D01*
X163607666Y-87792790D02*
X163655285Y-87840409D01*
X163655285Y-87840409D02*
X163702904Y-87935647D01*
X163702904Y-87935647D02*
X163702904Y-88173742D01*
X163702904Y-88173742D02*
X163655285Y-88268980D01*
X163655285Y-88268980D02*
X163607666Y-88316600D01*
X163607666Y-88316600D02*
X163512428Y-88364219D01*
X163512428Y-88364219D02*
X163226714Y-88364219D01*
X163226714Y-88364219D02*
X163131476Y-88316600D01*
X163131476Y-88316600D02*
X163083857Y-88268980D01*
X179959095Y-74759457D02*
X180006714Y-74711838D01*
X180006714Y-74711838D02*
X180101952Y-74664219D01*
X180101952Y-74664219D02*
X180340047Y-74664219D01*
X180340047Y-74664219D02*
X180435285Y-74711838D01*
X180435285Y-74711838D02*
X180482904Y-74759457D01*
X180482904Y-74759457D02*
X180530523Y-74854695D01*
X180530523Y-74854695D02*
X180530523Y-74949933D01*
X180530523Y-74949933D02*
X180482904Y-75092790D01*
X180482904Y-75092790D02*
X179911476Y-75664219D01*
X179911476Y-75664219D02*
X180530523Y-75664219D01*
X180863857Y-74664219D02*
X181482904Y-74664219D01*
X181482904Y-74664219D02*
X181149571Y-75045171D01*
X181149571Y-75045171D02*
X181292428Y-75045171D01*
X181292428Y-75045171D02*
X181387666Y-75092790D01*
X181387666Y-75092790D02*
X181435285Y-75140409D01*
X181435285Y-75140409D02*
X181482904Y-75235647D01*
X181482904Y-75235647D02*
X181482904Y-75473742D01*
X181482904Y-75473742D02*
X181435285Y-75568980D01*
X181435285Y-75568980D02*
X181387666Y-75616600D01*
X181387666Y-75616600D02*
X181292428Y-75664219D01*
X181292428Y-75664219D02*
X181006714Y-75664219D01*
X181006714Y-75664219D02*
X180911476Y-75616600D01*
X180911476Y-75616600D02*
X180863857Y-75568980D01*
X162131476Y-82284219D02*
X162750523Y-82284219D01*
X162750523Y-82284219D02*
X162417190Y-82665171D01*
X162417190Y-82665171D02*
X162560047Y-82665171D01*
X162560047Y-82665171D02*
X162655285Y-82712790D01*
X162655285Y-82712790D02*
X162702904Y-82760409D01*
X162702904Y-82760409D02*
X162750523Y-82855647D01*
X162750523Y-82855647D02*
X162750523Y-83093742D01*
X162750523Y-83093742D02*
X162702904Y-83188980D01*
X162702904Y-83188980D02*
X162655285Y-83236600D01*
X162655285Y-83236600D02*
X162560047Y-83284219D01*
X162560047Y-83284219D02*
X162274333Y-83284219D01*
X162274333Y-83284219D02*
X162179095Y-83236600D01*
X162179095Y-83236600D02*
X162131476Y-83188980D01*
X163607666Y-82617552D02*
X163607666Y-83284219D01*
X163369571Y-82236600D02*
X163131476Y-82950885D01*
X163131476Y-82950885D02*
X163750523Y-82950885D01*
X180554333Y-83284219D02*
X180221000Y-82808028D01*
X179982905Y-83284219D02*
X179982905Y-82284219D01*
X179982905Y-82284219D02*
X180363857Y-82284219D01*
X180363857Y-82284219D02*
X180459095Y-82331838D01*
X180459095Y-82331838D02*
X180506714Y-82379457D01*
X180506714Y-82379457D02*
X180554333Y-82474695D01*
X180554333Y-82474695D02*
X180554333Y-82617552D01*
X180554333Y-82617552D02*
X180506714Y-82712790D01*
X180506714Y-82712790D02*
X180459095Y-82760409D01*
X180459095Y-82760409D02*
X180363857Y-82808028D01*
X180363857Y-82808028D02*
X179982905Y-82808028D01*
X180887667Y-82284219D02*
X181554333Y-83284219D01*
X181554333Y-82284219D02*
X180887667Y-83284219D01*
X180530523Y-95984219D02*
X179959095Y-95984219D01*
X180244809Y-95984219D02*
X180244809Y-94984219D01*
X180244809Y-94984219D02*
X180149571Y-95127076D01*
X180149571Y-95127076D02*
X180054333Y-95222314D01*
X180054333Y-95222314D02*
X179959095Y-95269933D01*
X180863857Y-94984219D02*
X181530523Y-94984219D01*
X181530523Y-94984219D02*
X181101952Y-95984219D01*
X162774333Y-75664219D02*
X162441000Y-75188028D01*
X162202905Y-75664219D02*
X162202905Y-74664219D01*
X162202905Y-74664219D02*
X162583857Y-74664219D01*
X162583857Y-74664219D02*
X162679095Y-74711838D01*
X162679095Y-74711838D02*
X162726714Y-74759457D01*
X162726714Y-74759457D02*
X162774333Y-74854695D01*
X162774333Y-74854695D02*
X162774333Y-74997552D01*
X162774333Y-74997552D02*
X162726714Y-75092790D01*
X162726714Y-75092790D02*
X162679095Y-75140409D01*
X162679095Y-75140409D02*
X162583857Y-75188028D01*
X162583857Y-75188028D02*
X162202905Y-75188028D01*
X163155286Y-75616600D02*
X163298143Y-75664219D01*
X163298143Y-75664219D02*
X163536238Y-75664219D01*
X163536238Y-75664219D02*
X163631476Y-75616600D01*
X163631476Y-75616600D02*
X163679095Y-75568980D01*
X163679095Y-75568980D02*
X163726714Y-75473742D01*
X163726714Y-75473742D02*
X163726714Y-75378504D01*
X163726714Y-75378504D02*
X163679095Y-75283266D01*
X163679095Y-75283266D02*
X163631476Y-75235647D01*
X163631476Y-75235647D02*
X163536238Y-75188028D01*
X163536238Y-75188028D02*
X163345762Y-75140409D01*
X163345762Y-75140409D02*
X163250524Y-75092790D01*
X163250524Y-75092790D02*
X163202905Y-75045171D01*
X163202905Y-75045171D02*
X163155286Y-74949933D01*
X163155286Y-74949933D02*
X163155286Y-74854695D01*
X163155286Y-74854695D02*
X163202905Y-74759457D01*
X163202905Y-74759457D02*
X163250524Y-74711838D01*
X163250524Y-74711838D02*
X163345762Y-74664219D01*
X163345762Y-74664219D02*
X163583857Y-74664219D01*
X163583857Y-74664219D02*
X163726714Y-74711838D01*
X162202904Y-110700409D02*
X162345761Y-110748028D01*
X162345761Y-110748028D02*
X162393380Y-110795647D01*
X162393380Y-110795647D02*
X162440999Y-110890885D01*
X162440999Y-110890885D02*
X162440999Y-111033742D01*
X162440999Y-111033742D02*
X162393380Y-111128980D01*
X162393380Y-111128980D02*
X162345761Y-111176600D01*
X162345761Y-111176600D02*
X162250523Y-111224219D01*
X162250523Y-111224219D02*
X161869571Y-111224219D01*
X161869571Y-111224219D02*
X161869571Y-110224219D01*
X161869571Y-110224219D02*
X162202904Y-110224219D01*
X162202904Y-110224219D02*
X162298142Y-110271838D01*
X162298142Y-110271838D02*
X162345761Y-110319457D01*
X162345761Y-110319457D02*
X162393380Y-110414695D01*
X162393380Y-110414695D02*
X162393380Y-110509933D01*
X162393380Y-110509933D02*
X162345761Y-110605171D01*
X162345761Y-110605171D02*
X162298142Y-110652790D01*
X162298142Y-110652790D02*
X162202904Y-110700409D01*
X162202904Y-110700409D02*
X161869571Y-110700409D01*
X162821952Y-110938504D02*
X163298142Y-110938504D01*
X162726714Y-111224219D02*
X163060047Y-110224219D01*
X163060047Y-110224219D02*
X163393380Y-111224219D01*
X163583857Y-110224219D02*
X164155285Y-110224219D01*
X163869571Y-111224219D02*
X163869571Y-110224219D01*
X179959095Y-84919457D02*
X180006714Y-84871838D01*
X180006714Y-84871838D02*
X180101952Y-84824219D01*
X180101952Y-84824219D02*
X180340047Y-84824219D01*
X180340047Y-84824219D02*
X180435285Y-84871838D01*
X180435285Y-84871838D02*
X180482904Y-84919457D01*
X180482904Y-84919457D02*
X180530523Y-85014695D01*
X180530523Y-85014695D02*
X180530523Y-85109933D01*
X180530523Y-85109933D02*
X180482904Y-85252790D01*
X180482904Y-85252790D02*
X179911476Y-85824219D01*
X179911476Y-85824219D02*
X180530523Y-85824219D01*
X181482904Y-85824219D02*
X180911476Y-85824219D01*
X181197190Y-85824219D02*
X181197190Y-84824219D01*
X181197190Y-84824219D02*
X181101952Y-84967076D01*
X181101952Y-84967076D02*
X181006714Y-85062314D01*
X181006714Y-85062314D02*
X180911476Y-85109933D01*
X179959095Y-77299457D02*
X180006714Y-77251838D01*
X180006714Y-77251838D02*
X180101952Y-77204219D01*
X180101952Y-77204219D02*
X180340047Y-77204219D01*
X180340047Y-77204219D02*
X180435285Y-77251838D01*
X180435285Y-77251838D02*
X180482904Y-77299457D01*
X180482904Y-77299457D02*
X180530523Y-77394695D01*
X180530523Y-77394695D02*
X180530523Y-77489933D01*
X180530523Y-77489933D02*
X180482904Y-77632790D01*
X180482904Y-77632790D02*
X179911476Y-78204219D01*
X179911476Y-78204219D02*
X180530523Y-78204219D01*
X180911476Y-77299457D02*
X180959095Y-77251838D01*
X180959095Y-77251838D02*
X181054333Y-77204219D01*
X181054333Y-77204219D02*
X181292428Y-77204219D01*
X181292428Y-77204219D02*
X181387666Y-77251838D01*
X181387666Y-77251838D02*
X181435285Y-77299457D01*
X181435285Y-77299457D02*
X181482904Y-77394695D01*
X181482904Y-77394695D02*
X181482904Y-77489933D01*
X181482904Y-77489933D02*
X181435285Y-77632790D01*
X181435285Y-77632790D02*
X180863857Y-78204219D01*
X180863857Y-78204219D02*
X181482904Y-78204219D01*
X180959095Y-92444219D02*
X180482905Y-92444219D01*
X180482905Y-92444219D02*
X180435286Y-92920409D01*
X180435286Y-92920409D02*
X180482905Y-92872790D01*
X180482905Y-92872790D02*
X180578143Y-92825171D01*
X180578143Y-92825171D02*
X180816238Y-92825171D01*
X180816238Y-92825171D02*
X180911476Y-92872790D01*
X180911476Y-92872790D02*
X180959095Y-92920409D01*
X180959095Y-92920409D02*
X181006714Y-93015647D01*
X181006714Y-93015647D02*
X181006714Y-93253742D01*
X181006714Y-93253742D02*
X180959095Y-93348980D01*
X180959095Y-93348980D02*
X180911476Y-93396600D01*
X180911476Y-93396600D02*
X180816238Y-93444219D01*
X180816238Y-93444219D02*
X180578143Y-93444219D01*
X180578143Y-93444219D02*
X180482905Y-93396600D01*
X180482905Y-93396600D02*
X180435286Y-93348980D01*
X162179095Y-92539457D02*
X162226714Y-92491838D01*
X162226714Y-92491838D02*
X162321952Y-92444219D01*
X162321952Y-92444219D02*
X162560047Y-92444219D01*
X162560047Y-92444219D02*
X162655285Y-92491838D01*
X162655285Y-92491838D02*
X162702904Y-92539457D01*
X162702904Y-92539457D02*
X162750523Y-92634695D01*
X162750523Y-92634695D02*
X162750523Y-92729933D01*
X162750523Y-92729933D02*
X162702904Y-92872790D01*
X162702904Y-92872790D02*
X162131476Y-93444219D01*
X162131476Y-93444219D02*
X162750523Y-93444219D01*
X163607666Y-92444219D02*
X163417190Y-92444219D01*
X163417190Y-92444219D02*
X163321952Y-92491838D01*
X163321952Y-92491838D02*
X163274333Y-92539457D01*
X163274333Y-92539457D02*
X163179095Y-92682314D01*
X163179095Y-92682314D02*
X163131476Y-92872790D01*
X163131476Y-92872790D02*
X163131476Y-93253742D01*
X163131476Y-93253742D02*
X163179095Y-93348980D01*
X163179095Y-93348980D02*
X163226714Y-93396600D01*
X163226714Y-93396600D02*
X163321952Y-93444219D01*
X163321952Y-93444219D02*
X163512428Y-93444219D01*
X163512428Y-93444219D02*
X163607666Y-93396600D01*
X163607666Y-93396600D02*
X163655285Y-93348980D01*
X163655285Y-93348980D02*
X163702904Y-93253742D01*
X163702904Y-93253742D02*
X163702904Y-93015647D01*
X163702904Y-93015647D02*
X163655285Y-92920409D01*
X163655285Y-92920409D02*
X163607666Y-92872790D01*
X163607666Y-92872790D02*
X163512428Y-92825171D01*
X163512428Y-92825171D02*
X163321952Y-92825171D01*
X163321952Y-92825171D02*
X163226714Y-92872790D01*
X163226714Y-92872790D02*
X163179095Y-92920409D01*
X163179095Y-92920409D02*
X163131476Y-93015647D01*
X162750523Y-103604219D02*
X162179095Y-103604219D01*
X162464809Y-103604219D02*
X162464809Y-102604219D01*
X162464809Y-102604219D02*
X162369571Y-102747076D01*
X162369571Y-102747076D02*
X162274333Y-102842314D01*
X162274333Y-102842314D02*
X162179095Y-102889933D01*
X163083857Y-102604219D02*
X163702904Y-102604219D01*
X163702904Y-102604219D02*
X163369571Y-102985171D01*
X163369571Y-102985171D02*
X163512428Y-102985171D01*
X163512428Y-102985171D02*
X163607666Y-103032790D01*
X163607666Y-103032790D02*
X163655285Y-103080409D01*
X163655285Y-103080409D02*
X163702904Y-103175647D01*
X163702904Y-103175647D02*
X163702904Y-103413742D01*
X163702904Y-103413742D02*
X163655285Y-103508980D01*
X163655285Y-103508980D02*
X163607666Y-103556600D01*
X163607666Y-103556600D02*
X163512428Y-103604219D01*
X163512428Y-103604219D02*
X163226714Y-103604219D01*
X163226714Y-103604219D02*
X163131476Y-103556600D01*
X163131476Y-103556600D02*
X163083857Y-103508980D01*
X162750523Y-101064219D02*
X162179095Y-101064219D01*
X162464809Y-101064219D02*
X162464809Y-100064219D01*
X162464809Y-100064219D02*
X162369571Y-100207076D01*
X162369571Y-100207076D02*
X162274333Y-100302314D01*
X162274333Y-100302314D02*
X162179095Y-100349933D01*
X163131476Y-100159457D02*
X163179095Y-100111838D01*
X163179095Y-100111838D02*
X163274333Y-100064219D01*
X163274333Y-100064219D02*
X163512428Y-100064219D01*
X163512428Y-100064219D02*
X163607666Y-100111838D01*
X163607666Y-100111838D02*
X163655285Y-100159457D01*
X163655285Y-100159457D02*
X163702904Y-100254695D01*
X163702904Y-100254695D02*
X163702904Y-100349933D01*
X163702904Y-100349933D02*
X163655285Y-100492790D01*
X163655285Y-100492790D02*
X163083857Y-101064219D01*
X163083857Y-101064219D02*
X163702904Y-101064219D01*
X162107667Y-77204219D02*
X162441000Y-78204219D01*
X162441000Y-78204219D02*
X162774333Y-77204219D01*
X163107667Y-78204219D02*
X163107667Y-77204219D01*
X163107667Y-77204219D02*
X163488619Y-77204219D01*
X163488619Y-77204219D02*
X163583857Y-77251838D01*
X163583857Y-77251838D02*
X163631476Y-77299457D01*
X163631476Y-77299457D02*
X163679095Y-77394695D01*
X163679095Y-77394695D02*
X163679095Y-77537552D01*
X163679095Y-77537552D02*
X163631476Y-77632790D01*
X163631476Y-77632790D02*
X163583857Y-77680409D01*
X163583857Y-77680409D02*
X163488619Y-77728028D01*
X163488619Y-77728028D02*
X163107667Y-77728028D01*
X162179095Y-95079457D02*
X162226714Y-95031838D01*
X162226714Y-95031838D02*
X162321952Y-94984219D01*
X162321952Y-94984219D02*
X162560047Y-94984219D01*
X162560047Y-94984219D02*
X162655285Y-95031838D01*
X162655285Y-95031838D02*
X162702904Y-95079457D01*
X162702904Y-95079457D02*
X162750523Y-95174695D01*
X162750523Y-95174695D02*
X162750523Y-95269933D01*
X162750523Y-95269933D02*
X162702904Y-95412790D01*
X162702904Y-95412790D02*
X162131476Y-95984219D01*
X162131476Y-95984219D02*
X162750523Y-95984219D01*
X163083857Y-94984219D02*
X163750523Y-94984219D01*
X163750523Y-94984219D02*
X163321952Y-95984219D01*
X162083857Y-79744219D02*
X162417190Y-80744219D01*
X162417190Y-80744219D02*
X162750523Y-79744219D01*
X163083857Y-80744219D02*
X163083857Y-79744219D01*
X163083857Y-79744219D02*
X163655285Y-80744219D01*
X163655285Y-80744219D02*
X163655285Y-79744219D01*
X180530523Y-108684219D02*
X179959095Y-108684219D01*
X180244809Y-108684219D02*
X180244809Y-107684219D01*
X180244809Y-107684219D02*
X180149571Y-107827076D01*
X180149571Y-107827076D02*
X180054333Y-107922314D01*
X180054333Y-107922314D02*
X179959095Y-107969933D01*
X181435285Y-107684219D02*
X180959095Y-107684219D01*
X180959095Y-107684219D02*
X180911476Y-108160409D01*
X180911476Y-108160409D02*
X180959095Y-108112790D01*
X180959095Y-108112790D02*
X181054333Y-108065171D01*
X181054333Y-108065171D02*
X181292428Y-108065171D01*
X181292428Y-108065171D02*
X181387666Y-108112790D01*
X181387666Y-108112790D02*
X181435285Y-108160409D01*
X181435285Y-108160409D02*
X181482904Y-108255647D01*
X181482904Y-108255647D02*
X181482904Y-108493742D01*
X181482904Y-108493742D02*
X181435285Y-108588980D01*
X181435285Y-108588980D02*
X181387666Y-108636600D01*
X181387666Y-108636600D02*
X181292428Y-108684219D01*
X181292428Y-108684219D02*
X181054333Y-108684219D01*
X181054333Y-108684219D02*
X180959095Y-108636600D01*
X180959095Y-108636600D02*
X180911476Y-108588980D01*
X162750523Y-98524219D02*
X162179095Y-98524219D01*
X162464809Y-98524219D02*
X162464809Y-97524219D01*
X162464809Y-97524219D02*
X162369571Y-97667076D01*
X162369571Y-97667076D02*
X162274333Y-97762314D01*
X162274333Y-97762314D02*
X162179095Y-97809933D01*
X163607666Y-97857552D02*
X163607666Y-98524219D01*
X163369571Y-97476600D02*
X163131476Y-98190885D01*
X163131476Y-98190885D02*
X163750523Y-98190885D01*
X179959095Y-72171838D02*
X179863857Y-72124219D01*
X179863857Y-72124219D02*
X179721000Y-72124219D01*
X179721000Y-72124219D02*
X179578143Y-72171838D01*
X179578143Y-72171838D02*
X179482905Y-72267076D01*
X179482905Y-72267076D02*
X179435286Y-72362314D01*
X179435286Y-72362314D02*
X179387667Y-72552790D01*
X179387667Y-72552790D02*
X179387667Y-72695647D01*
X179387667Y-72695647D02*
X179435286Y-72886123D01*
X179435286Y-72886123D02*
X179482905Y-72981361D01*
X179482905Y-72981361D02*
X179578143Y-73076600D01*
X179578143Y-73076600D02*
X179721000Y-73124219D01*
X179721000Y-73124219D02*
X179816238Y-73124219D01*
X179816238Y-73124219D02*
X179959095Y-73076600D01*
X179959095Y-73076600D02*
X180006714Y-73028980D01*
X180006714Y-73028980D02*
X180006714Y-72695647D01*
X180006714Y-72695647D02*
X179816238Y-72695647D01*
X180435286Y-73124219D02*
X180435286Y-72124219D01*
X180435286Y-72124219D02*
X181006714Y-73124219D01*
X181006714Y-73124219D02*
X181006714Y-72124219D01*
X181482905Y-73124219D02*
X181482905Y-72124219D01*
X181482905Y-72124219D02*
X181721000Y-72124219D01*
X181721000Y-72124219D02*
X181863857Y-72171838D01*
X181863857Y-72171838D02*
X181959095Y-72267076D01*
X181959095Y-72267076D02*
X182006714Y-72362314D01*
X182006714Y-72362314D02*
X182054333Y-72552790D01*
X182054333Y-72552790D02*
X182054333Y-72695647D01*
X182054333Y-72695647D02*
X182006714Y-72886123D01*
X182006714Y-72886123D02*
X181959095Y-72981361D01*
X181959095Y-72981361D02*
X181863857Y-73076600D01*
X181863857Y-73076600D02*
X181721000Y-73124219D01*
X181721000Y-73124219D02*
X181482905Y-73124219D01*
X162179095Y-89999457D02*
X162226714Y-89951838D01*
X162226714Y-89951838D02*
X162321952Y-89904219D01*
X162321952Y-89904219D02*
X162560047Y-89904219D01*
X162560047Y-89904219D02*
X162655285Y-89951838D01*
X162655285Y-89951838D02*
X162702904Y-89999457D01*
X162702904Y-89999457D02*
X162750523Y-90094695D01*
X162750523Y-90094695D02*
X162750523Y-90189933D01*
X162750523Y-90189933D02*
X162702904Y-90332790D01*
X162702904Y-90332790D02*
X162131476Y-90904219D01*
X162131476Y-90904219D02*
X162750523Y-90904219D01*
X163655285Y-89904219D02*
X163179095Y-89904219D01*
X163179095Y-89904219D02*
X163131476Y-90380409D01*
X163131476Y-90380409D02*
X163179095Y-90332790D01*
X163179095Y-90332790D02*
X163274333Y-90285171D01*
X163274333Y-90285171D02*
X163512428Y-90285171D01*
X163512428Y-90285171D02*
X163607666Y-90332790D01*
X163607666Y-90332790D02*
X163655285Y-90380409D01*
X163655285Y-90380409D02*
X163702904Y-90475647D01*
X163702904Y-90475647D02*
X163702904Y-90713742D01*
X163702904Y-90713742D02*
X163655285Y-90808980D01*
X163655285Y-90808980D02*
X163607666Y-90856600D01*
X163607666Y-90856600D02*
X163512428Y-90904219D01*
X163512428Y-90904219D02*
X163274333Y-90904219D01*
X163274333Y-90904219D02*
X163179095Y-90856600D01*
X163179095Y-90856600D02*
X163131476Y-90808980D01*
X181006713Y-106139342D02*
X180959094Y-106186961D01*
X180959094Y-106186961D02*
X180863856Y-106234580D01*
X180863856Y-106234580D02*
X180625761Y-106234580D01*
X180625761Y-106234580D02*
X180530523Y-106186961D01*
X180530523Y-106186961D02*
X180482904Y-106139342D01*
X180482904Y-106139342D02*
X180435285Y-106044104D01*
X180435285Y-106044104D02*
X180435285Y-105948866D01*
X180435285Y-105948866D02*
X180482904Y-105806009D01*
X180482904Y-105806009D02*
X181054332Y-105234580D01*
X181054332Y-105234580D02*
X180435285Y-105234580D01*
X180530523Y-90904219D02*
X179959095Y-90904219D01*
X180244809Y-90904219D02*
X180244809Y-89904219D01*
X180244809Y-89904219D02*
X180149571Y-90047076D01*
X180149571Y-90047076D02*
X180054333Y-90142314D01*
X180054333Y-90142314D02*
X179959095Y-90189933D01*
X181101952Y-90332790D02*
X181006714Y-90285171D01*
X181006714Y-90285171D02*
X180959095Y-90237552D01*
X180959095Y-90237552D02*
X180911476Y-90142314D01*
X180911476Y-90142314D02*
X180911476Y-90094695D01*
X180911476Y-90094695D02*
X180959095Y-89999457D01*
X180959095Y-89999457D02*
X181006714Y-89951838D01*
X181006714Y-89951838D02*
X181101952Y-89904219D01*
X181101952Y-89904219D02*
X181292428Y-89904219D01*
X181292428Y-89904219D02*
X181387666Y-89951838D01*
X181387666Y-89951838D02*
X181435285Y-89999457D01*
X181435285Y-89999457D02*
X181482904Y-90094695D01*
X181482904Y-90094695D02*
X181482904Y-90142314D01*
X181482904Y-90142314D02*
X181435285Y-90237552D01*
X181435285Y-90237552D02*
X181387666Y-90285171D01*
X181387666Y-90285171D02*
X181292428Y-90332790D01*
X181292428Y-90332790D02*
X181101952Y-90332790D01*
X181101952Y-90332790D02*
X181006714Y-90380409D01*
X181006714Y-90380409D02*
X180959095Y-90428028D01*
X180959095Y-90428028D02*
X180911476Y-90523266D01*
X180911476Y-90523266D02*
X180911476Y-90713742D01*
X180911476Y-90713742D02*
X180959095Y-90808980D01*
X180959095Y-90808980D02*
X181006714Y-90856600D01*
X181006714Y-90856600D02*
X181101952Y-90904219D01*
X181101952Y-90904219D02*
X181292428Y-90904219D01*
X181292428Y-90904219D02*
X181387666Y-90856600D01*
X181387666Y-90856600D02*
X181435285Y-90808980D01*
X181435285Y-90808980D02*
X181482904Y-90713742D01*
X181482904Y-90713742D02*
X181482904Y-90523266D01*
X181482904Y-90523266D02*
X181435285Y-90428028D01*
X181435285Y-90428028D02*
X181387666Y-90380409D01*
X181387666Y-90380409D02*
X181292428Y-90332790D01*
X180530523Y-98524219D02*
X179959095Y-98524219D01*
X180244809Y-98524219D02*
X180244809Y-97524219D01*
X180244809Y-97524219D02*
X180149571Y-97667076D01*
X180149571Y-97667076D02*
X180054333Y-97762314D01*
X180054333Y-97762314D02*
X179959095Y-97809933D01*
X181387666Y-97524219D02*
X181197190Y-97524219D01*
X181197190Y-97524219D02*
X181101952Y-97571838D01*
X181101952Y-97571838D02*
X181054333Y-97619457D01*
X181054333Y-97619457D02*
X180959095Y-97762314D01*
X180959095Y-97762314D02*
X180911476Y-97952790D01*
X180911476Y-97952790D02*
X180911476Y-98333742D01*
X180911476Y-98333742D02*
X180959095Y-98428980D01*
X180959095Y-98428980D02*
X181006714Y-98476600D01*
X181006714Y-98476600D02*
X181101952Y-98524219D01*
X181101952Y-98524219D02*
X181292428Y-98524219D01*
X181292428Y-98524219D02*
X181387666Y-98476600D01*
X181387666Y-98476600D02*
X181435285Y-98428980D01*
X181435285Y-98428980D02*
X181482904Y-98333742D01*
X181482904Y-98333742D02*
X181482904Y-98095647D01*
X181482904Y-98095647D02*
X181435285Y-98000409D01*
X181435285Y-98000409D02*
X181387666Y-97952790D01*
X181387666Y-97952790D02*
X181292428Y-97905171D01*
X181292428Y-97905171D02*
X181101952Y-97905171D01*
X181101952Y-97905171D02*
X181006714Y-97952790D01*
X181006714Y-97952790D02*
X180959095Y-98000409D01*
X180959095Y-98000409D02*
X180911476Y-98095647D01*
X180911476Y-100397552D02*
X180911476Y-101064219D01*
X180673381Y-100016600D02*
X180435286Y-100730885D01*
X180435286Y-100730885D02*
X181054333Y-100730885D01*
X162179095Y-72124219D02*
X162798142Y-72124219D01*
X162798142Y-72124219D02*
X162464809Y-72505171D01*
X162464809Y-72505171D02*
X162607666Y-72505171D01*
X162607666Y-72505171D02*
X162702904Y-72552790D01*
X162702904Y-72552790D02*
X162750523Y-72600409D01*
X162750523Y-72600409D02*
X162798142Y-72695647D01*
X162798142Y-72695647D02*
X162798142Y-72933742D01*
X162798142Y-72933742D02*
X162750523Y-73028980D01*
X162750523Y-73028980D02*
X162702904Y-73076600D01*
X162702904Y-73076600D02*
X162607666Y-73124219D01*
X162607666Y-73124219D02*
X162321952Y-73124219D01*
X162321952Y-73124219D02*
X162226714Y-73076600D01*
X162226714Y-73076600D02*
X162179095Y-73028980D01*
X163083857Y-72124219D02*
X163417190Y-73124219D01*
X163417190Y-73124219D02*
X163750523Y-72124219D01*
X180530523Y-88364219D02*
X179959095Y-88364219D01*
X180244809Y-88364219D02*
X180244809Y-87364219D01*
X180244809Y-87364219D02*
X180149571Y-87507076D01*
X180149571Y-87507076D02*
X180054333Y-87602314D01*
X180054333Y-87602314D02*
X179959095Y-87649933D01*
X181006714Y-88364219D02*
X181197190Y-88364219D01*
X181197190Y-88364219D02*
X181292428Y-88316600D01*
X181292428Y-88316600D02*
X181340047Y-88268980D01*
X181340047Y-88268980D02*
X181435285Y-88126123D01*
X181435285Y-88126123D02*
X181482904Y-87935647D01*
X181482904Y-87935647D02*
X181482904Y-87554695D01*
X181482904Y-87554695D02*
X181435285Y-87459457D01*
X181435285Y-87459457D02*
X181387666Y-87411838D01*
X181387666Y-87411838D02*
X181292428Y-87364219D01*
X181292428Y-87364219D02*
X181101952Y-87364219D01*
X181101952Y-87364219D02*
X181006714Y-87411838D01*
X181006714Y-87411838D02*
X180959095Y-87459457D01*
X180959095Y-87459457D02*
X180911476Y-87554695D01*
X180911476Y-87554695D02*
X180911476Y-87792790D01*
X180911476Y-87792790D02*
X180959095Y-87888028D01*
X180959095Y-87888028D02*
X181006714Y-87935647D01*
X181006714Y-87935647D02*
X181101952Y-87983266D01*
X181101952Y-87983266D02*
X181292428Y-87983266D01*
X181292428Y-87983266D02*
X181387666Y-87935647D01*
X181387666Y-87935647D02*
X181435285Y-87888028D01*
X181435285Y-87888028D02*
X181482904Y-87792790D01*
X162202905Y-105620409D02*
X162536238Y-105620409D01*
X162679095Y-106144219D02*
X162202905Y-106144219D01*
X162202905Y-106144219D02*
X162202905Y-105144219D01*
X162202905Y-105144219D02*
X162679095Y-105144219D01*
X163107667Y-106144219D02*
X163107667Y-105144219D01*
X163107667Y-105144219D02*
X163679095Y-106144219D01*
X163679095Y-106144219D02*
X163679095Y-105144219D01*
X179959095Y-79744219D02*
X180530523Y-79744219D01*
X180244809Y-80744219D02*
X180244809Y-79744219D01*
X180768619Y-79744219D02*
X181435285Y-80744219D01*
X181435285Y-79744219D02*
X180768619Y-80744219D01*
X180673381Y-102604219D02*
X180768619Y-102604219D01*
X180768619Y-102604219D02*
X180863857Y-102651838D01*
X180863857Y-102651838D02*
X180911476Y-102699457D01*
X180911476Y-102699457D02*
X180959095Y-102794695D01*
X180959095Y-102794695D02*
X181006714Y-102985171D01*
X181006714Y-102985171D02*
X181006714Y-103223266D01*
X181006714Y-103223266D02*
X180959095Y-103413742D01*
X180959095Y-103413742D02*
X180911476Y-103508980D01*
X180911476Y-103508980D02*
X180863857Y-103556600D01*
X180863857Y-103556600D02*
X180768619Y-103604219D01*
X180768619Y-103604219D02*
X180673381Y-103604219D01*
X180673381Y-103604219D02*
X180578143Y-103556600D01*
X180578143Y-103556600D02*
X180530524Y-103508980D01*
X180530524Y-103508980D02*
X180482905Y-103413742D01*
X180482905Y-103413742D02*
X180435286Y-103223266D01*
X180435286Y-103223266D02*
X180435286Y-102985171D01*
X180435286Y-102985171D02*
X180482905Y-102794695D01*
X180482905Y-102794695D02*
X180530524Y-102699457D01*
X180530524Y-102699457D02*
X180578143Y-102651838D01*
X180578143Y-102651838D02*
X180673381Y-102604219D01*
X196834819Y-59913333D02*
X197549104Y-59913333D01*
X197549104Y-59913333D02*
X197691961Y-59960952D01*
X197691961Y-59960952D02*
X197787200Y-60056190D01*
X197787200Y-60056190D02*
X197834819Y-60199047D01*
X197834819Y-60199047D02*
X197834819Y-60294285D01*
X197834819Y-58913333D02*
X197834819Y-59484761D01*
X197834819Y-59199047D02*
X196834819Y-59199047D01*
X196834819Y-59199047D02*
X196977676Y-59294285D01*
X196977676Y-59294285D02*
X197072914Y-59389523D01*
X197072914Y-59389523D02*
X197120533Y-59484761D01*
X160118466Y-53321419D02*
X160118466Y-54035704D01*
X160118466Y-54035704D02*
X160070847Y-54178561D01*
X160070847Y-54178561D02*
X159975609Y-54273800D01*
X159975609Y-54273800D02*
X159832752Y-54321419D01*
X159832752Y-54321419D02*
X159737514Y-54321419D01*
X160547038Y-53416657D02*
X160594657Y-53369038D01*
X160594657Y-53369038D02*
X160689895Y-53321419D01*
X160689895Y-53321419D02*
X160927990Y-53321419D01*
X160927990Y-53321419D02*
X161023228Y-53369038D01*
X161023228Y-53369038D02*
X161070847Y-53416657D01*
X161070847Y-53416657D02*
X161118466Y-53511895D01*
X161118466Y-53511895D02*
X161118466Y-53607133D01*
X161118466Y-53607133D02*
X161070847Y-53749990D01*
X161070847Y-53749990D02*
X160499419Y-54321419D01*
X160499419Y-54321419D02*
X161118466Y-54321419D01*
X187221905Y-116112819D02*
X187221905Y-115112819D01*
X187221905Y-115112819D02*
X187460000Y-115112819D01*
X187460000Y-115112819D02*
X187602857Y-115160438D01*
X187602857Y-115160438D02*
X187698095Y-115255676D01*
X187698095Y-115255676D02*
X187745714Y-115350914D01*
X187745714Y-115350914D02*
X187793333Y-115541390D01*
X187793333Y-115541390D02*
X187793333Y-115684247D01*
X187793333Y-115684247D02*
X187745714Y-115874723D01*
X187745714Y-115874723D02*
X187698095Y-115969961D01*
X187698095Y-115969961D02*
X187602857Y-116065200D01*
X187602857Y-116065200D02*
X187460000Y-116112819D01*
X187460000Y-116112819D02*
X187221905Y-116112819D01*
X188174286Y-115208057D02*
X188221905Y-115160438D01*
X188221905Y-115160438D02*
X188317143Y-115112819D01*
X188317143Y-115112819D02*
X188555238Y-115112819D01*
X188555238Y-115112819D02*
X188650476Y-115160438D01*
X188650476Y-115160438D02*
X188698095Y-115208057D01*
X188698095Y-115208057D02*
X188745714Y-115303295D01*
X188745714Y-115303295D02*
X188745714Y-115398533D01*
X188745714Y-115398533D02*
X188698095Y-115541390D01*
X188698095Y-115541390D02*
X188126667Y-116112819D01*
X188126667Y-116112819D02*
X188745714Y-116112819D01*
X192858819Y-90590666D02*
X192382628Y-90923999D01*
X192858819Y-91162094D02*
X191858819Y-91162094D01*
X191858819Y-91162094D02*
X191858819Y-90781142D01*
X191858819Y-90781142D02*
X191906438Y-90685904D01*
X191906438Y-90685904D02*
X191954057Y-90638285D01*
X191954057Y-90638285D02*
X192049295Y-90590666D01*
X192049295Y-90590666D02*
X192192152Y-90590666D01*
X192192152Y-90590666D02*
X192287390Y-90638285D01*
X192287390Y-90638285D02*
X192335009Y-90685904D01*
X192335009Y-90685904D02*
X192382628Y-90781142D01*
X192382628Y-90781142D02*
X192382628Y-91162094D01*
X192858819Y-89638285D02*
X192858819Y-90209713D01*
X192858819Y-89923999D02*
X191858819Y-89923999D01*
X191858819Y-89923999D02*
X192001676Y-90019237D01*
X192001676Y-90019237D02*
X192096914Y-90114475D01*
X192096914Y-90114475D02*
X192144533Y-90209713D01*
X176363333Y-116406819D02*
X176030000Y-115930628D01*
X175791905Y-116406819D02*
X175791905Y-115406819D01*
X175791905Y-115406819D02*
X176172857Y-115406819D01*
X176172857Y-115406819D02*
X176268095Y-115454438D01*
X176268095Y-115454438D02*
X176315714Y-115502057D01*
X176315714Y-115502057D02*
X176363333Y-115597295D01*
X176363333Y-115597295D02*
X176363333Y-115740152D01*
X176363333Y-115740152D02*
X176315714Y-115835390D01*
X176315714Y-115835390D02*
X176268095Y-115883009D01*
X176268095Y-115883009D02*
X176172857Y-115930628D01*
X176172857Y-115930628D02*
X175791905Y-115930628D01*
X176744286Y-115502057D02*
X176791905Y-115454438D01*
X176791905Y-115454438D02*
X176887143Y-115406819D01*
X176887143Y-115406819D02*
X177125238Y-115406819D01*
X177125238Y-115406819D02*
X177220476Y-115454438D01*
X177220476Y-115454438D02*
X177268095Y-115502057D01*
X177268095Y-115502057D02*
X177315714Y-115597295D01*
X177315714Y-115597295D02*
X177315714Y-115692533D01*
X177315714Y-115692533D02*
X177268095Y-115835390D01*
X177268095Y-115835390D02*
X176696667Y-116406819D01*
X176696667Y-116406819D02*
X177315714Y-116406819D01*
X190436667Y-100229200D02*
X190579524Y-100276819D01*
X190579524Y-100276819D02*
X190817619Y-100276819D01*
X190817619Y-100276819D02*
X190912857Y-100229200D01*
X190912857Y-100229200D02*
X190960476Y-100181580D01*
X190960476Y-100181580D02*
X191008095Y-100086342D01*
X191008095Y-100086342D02*
X191008095Y-99991104D01*
X191008095Y-99991104D02*
X190960476Y-99895866D01*
X190960476Y-99895866D02*
X190912857Y-99848247D01*
X190912857Y-99848247D02*
X190817619Y-99800628D01*
X190817619Y-99800628D02*
X190627143Y-99753009D01*
X190627143Y-99753009D02*
X190531905Y-99705390D01*
X190531905Y-99705390D02*
X190484286Y-99657771D01*
X190484286Y-99657771D02*
X190436667Y-99562533D01*
X190436667Y-99562533D02*
X190436667Y-99467295D01*
X190436667Y-99467295D02*
X190484286Y-99372057D01*
X190484286Y-99372057D02*
X190531905Y-99324438D01*
X190531905Y-99324438D02*
X190627143Y-99276819D01*
X190627143Y-99276819D02*
X190865238Y-99276819D01*
X190865238Y-99276819D02*
X191008095Y-99324438D01*
X191341429Y-99276819D02*
X191579524Y-100276819D01*
X191579524Y-100276819D02*
X191770000Y-99562533D01*
X191770000Y-99562533D02*
X191960476Y-100276819D01*
X191960476Y-100276819D02*
X192198572Y-99276819D01*
X193103333Y-100276819D02*
X192531905Y-100276819D01*
X192817619Y-100276819D02*
X192817619Y-99276819D01*
X192817619Y-99276819D02*
X192722381Y-99419676D01*
X192722381Y-99419676D02*
X192627143Y-99514914D01*
X192627143Y-99514914D02*
X192531905Y-99562533D01*
%TO.C,M1*%
X159131000Y-65819400D02*
X159131000Y-122819400D01*
X159131000Y-122819400D02*
X184531000Y-122819400D01*
X184531000Y-65819400D02*
X159131000Y-65819400D01*
X184531000Y-122819400D02*
X184531000Y-65819400D01*
D11*
%TO.C,J1*%
X181310000Y-56140000D02*
X181310000Y-60740000D01*
X181310000Y-63440000D02*
X181310000Y-62340000D01*
X182910000Y-55340000D02*
X183410000Y-55840000D01*
X183410000Y-55840000D02*
X183910000Y-55340000D01*
X183910000Y-55340000D02*
X182910000Y-55340000D01*
X192710000Y-56140000D02*
X181310000Y-56140000D01*
X192710000Y-56140000D02*
X192710000Y-56440000D01*
X192710000Y-56440000D02*
X195510000Y-56440000D01*
X192710000Y-62240000D02*
X192710000Y-63440000D01*
X192710000Y-62240000D02*
X195510000Y-62240000D01*
X192710000Y-63440000D02*
X181310000Y-63440000D01*
X195510000Y-62240000D02*
X195510000Y-56440000D01*
%TO.C,J2*%
X159121800Y-50266600D02*
X159121800Y-42586600D01*
X161781800Y-42586600D02*
X159121800Y-42586600D01*
X161781800Y-50266600D02*
X159121800Y-50266600D01*
X161781800Y-50266600D02*
X161781800Y-42586600D01*
X161781800Y-51536600D02*
X161781800Y-52866600D01*
X161781800Y-52866600D02*
X160451800Y-52866600D01*
%TO.C,D2*%
X186400000Y-117382000D02*
X186400000Y-117538000D01*
X186400000Y-119698000D02*
X186400000Y-119854000D01*
X186400000Y-117382484D02*
G75*
G02*
X189632335Y-117539392I1560000J-1235516D01*
G01*
X186919039Y-117538000D02*
G75*
G02*
X189001130Y-117538163I1040961J-1080000D01*
G01*
X189001130Y-119697837D02*
G75*
G02*
X186919039Y-119698000I-1041130J1079837D01*
G01*
X189632335Y-119696608D02*
G75*
G02*
X186400000Y-119853516I-1672335J1078608D01*
G01*
%TO.C,R1*%
X189484000Y-88534000D02*
X189484000Y-92734000D01*
%TO.C,R2*%
X174640000Y-118872000D02*
X178840000Y-118872000D01*
D12*
%TO.C,SW1*%
X185984000Y-100640000D02*
X192984000Y-100640000D01*
X185984000Y-107640000D02*
X185984000Y-100640000D01*
X185984000Y-107640000D02*
X192984000Y-107640000D01*
X186359000Y-101015000D02*
X186359000Y-107265000D01*
X186359000Y-101015000D02*
X192609000Y-101015000D01*
X186359000Y-107265000D02*
X192609000Y-107265000D01*
X192609000Y-101015000D02*
X192609000Y-107265000D01*
X192984000Y-107640000D02*
X192984000Y-100640000D01*
%TD*%
M02*
