M48
; DRILL file {KiCad 9.0.2} date 2025-05-28T09:58:15-0700
; FORMAT={-:-/ absolute / inch / decimal}
; #@! TF.CreationDate,2025-05-28T09:58:15-07:00
; #@! TF.GenerationSoftware,Kicad,Pcbnew,9.0.2
; #@! TF.FileFunction,Plated,1,2,PTH
FMAT,2
INCH
; #@! TA.AperFunction,Plated,PTH,ComponentDrill
T1C0.0236
; #@! TA.AperFunction,Plated,PTH,ComponentDrill
T2C0.0354
; #@! TA.AperFunction,Plated,PTH,ComponentDrill
T3C0.0394
; #@! TA.AperFunction,Plated,PTH,ComponentDrill
T4C0.0433
; #@! TA.AperFunction,Plated,PTH,ComponentDrill
T5C0.0472
; #@! TA.AperFunction,Plated,PTH,ViaDrill
T6C0.1575
%
G90
G05
T2
X7.35Y-4.67
X7.45Y-4.67
T3
X6.315Y-2.861
X6.315Y-2.961
X6.315Y-3.061
X6.315Y-3.161
X6.315Y-3.261
X6.315Y-3.361
X6.315Y-3.461
X6.315Y-3.561
X6.315Y-3.661
X6.315Y-3.761
X6.315Y-3.861
X6.315Y-3.961
X6.315Y-4.061
X6.315Y-4.161
X6.315Y-4.261
X6.315Y-4.361
X6.317Y-1.729
X6.317Y-1.829
X6.317Y-1.929
X6.317Y-2.029
X7.215Y-2.861
X7.215Y-2.961
X7.215Y-3.061
X7.215Y-3.161
X7.215Y-3.261
X7.215Y-3.361
X7.215Y-3.461
X7.215Y-3.561
X7.215Y-3.661
X7.215Y-3.761
X7.215Y-3.861
X7.215Y-3.961
X7.215Y-4.061
X7.215Y-4.161
X7.215Y-4.261
T4
X7.36Y-4.0
X7.36Y-4.1
X7.36Y-4.2
X7.56Y-4.0
X7.56Y-4.1
X7.56Y-4.2
T5
X6.8Y-4.68
X7.1Y-4.68
X7.46Y-3.41
X7.46Y-3.71
T6
X6.378Y-4.9606
X7.4016Y-1.6535
X7.4016Y-4.9606
T1
G00X7.1736Y-2.2457
M15
G01X7.15Y-2.2457
M16
G05
G00X7.2327Y-2.4228
M15
G01X7.2091Y-2.4228
M16
G05
G00X7.3902Y-2.4228
M15
G01X7.3665Y-2.4228
M16
G05
G00X7.5083Y-2.4228
M15
G01X7.4846Y-2.4228
M16
G05
M30
