%TF.GenerationSoftware,KiCad,Pcbnew,9.0.2*%
%TF.CreationDate,2025-05-28T09:58:12-07:00*%
%TF.ProjectId,AnalogIn,416e616c-6f67-4496-9e2e-6b696361645f,rev?*%
%TF.SameCoordinates,Original*%
%TF.FileFunction,Copper,L2,Bot*%
%TF.FilePolarity,Positive*%
%FSLAX46Y46*%
G04 Gerber Fmt 4.6, Leading zero omitted, Abs format (unit mm)*
G04 Created by KiCad (PCBNEW 9.0.2) date 2025-05-28 09:58:12*
%MOMM*%
%LPD*%
G01*
G04 APERTURE LIST*
%TA.AperFunction,ComponentPad*%
%ADD10C,2.000000*%
%TD*%
%TA.AperFunction,ComponentPad*%
%ADD11O,2.000000X1.400000*%
%TD*%
%TA.AperFunction,ComponentPad*%
%ADD12R,2.000000X1.400000*%
%TD*%
%TA.AperFunction,ComponentPad*%
%ADD13R,1.700000X1.700000*%
%TD*%
%TA.AperFunction,ComponentPad*%
%ADD14O,1.700000X1.700000*%
%TD*%
%TA.AperFunction,ComponentPad*%
%ADD15R,1.800000X1.800000*%
%TD*%
%TA.AperFunction,ComponentPad*%
%ADD16C,1.800000*%
%TD*%
%TA.AperFunction,ComponentPad*%
%ADD17C,2.400000*%
%TD*%
%TA.AperFunction,ComponentPad*%
%ADD18O,2.400000X2.400000*%
%TD*%
%TA.AperFunction,ViaPad*%
%ADD19C,5.000000*%
%TD*%
%TA.AperFunction,Conductor*%
%ADD20C,0.250000*%
%TD*%
G04 APERTURE END LIST*
D10*
%TO.P,M1,1*%
%TO.N,Net-(M1-Pad1)*%
X160401000Y-110769400D03*
%TO.P,M1,2*%
%TO.N,Net-(M1-Pad2)*%
X160401000Y-108229400D03*
%TO.P,M1,3*%
%TO.N,Net-(M1-Pad3)*%
X160401000Y-105689400D03*
%TO.P,M1,4*%
%TO.N,Net-(M1-Pad4)*%
X160401000Y-103149400D03*
%TO.P,M1,5*%
%TO.N,Net-(M1-Pad5)*%
X160401000Y-100609400D03*
%TO.P,M1,6*%
%TO.N,Net-(M1-Pad6)*%
X160401000Y-98069400D03*
%TO.P,M1,7*%
%TO.N,Net-(M1-Pad7)*%
X160401000Y-95529400D03*
%TO.P,M1,8*%
%TO.N,Net-(M1-Pad8)*%
X160401000Y-92989400D03*
%TO.P,M1,9*%
%TO.N,Net-(M1-Pad9)*%
X160401000Y-90449400D03*
%TO.P,M1,10*%
%TO.N,Net-(M1-Pad10)*%
X160401000Y-87909400D03*
%TO.P,M1,11*%
%TO.N,Net-(J1-PadR1)*%
X160401000Y-85369400D03*
%TO.P,M1,12*%
%TO.N,Net-(J1-PadR2)*%
X160401000Y-82829400D03*
%TO.P,M1,13*%
%TO.N,Net-(M1-Pad13)*%
X160401000Y-80289400D03*
%TO.P,M1,14*%
%TO.N,Net-(M1-Pad14)*%
X160401000Y-77749400D03*
%TO.P,M1,15*%
%TO.N,Net-(M1-Pad15)*%
X160401000Y-75209400D03*
%TO.P,M1,16*%
%TO.N,Net-(J1-PadT)*%
X160401000Y-72669400D03*
%TO.P,M1,18*%
%TO.N,Net-(M1-Pad18)*%
X183261000Y-108229400D03*
%TO.P,M1,19*%
%TO.N,Net-(M1-Pad19)*%
X183261000Y-105689400D03*
%TO.P,M1,20*%
%TO.N,Net-(M1-Pad20)*%
X183261000Y-103149400D03*
%TO.P,M1,21*%
%TO.N,Net-(M1-Pad21)*%
X183261000Y-100609400D03*
%TO.P,M1,22*%
%TO.N,Net-(M1-Pad22)*%
X183261000Y-98069400D03*
%TO.P,M1,23*%
%TO.N,Net-(M1-Pad23)*%
X183261000Y-95529400D03*
%TO.P,M1,24*%
%TO.N,Net-(M1-Pad24)*%
X183261000Y-92989400D03*
%TO.P,M1,25*%
%TO.N,Net-(M1-Pad25)*%
X183261000Y-90449400D03*
%TO.P,M1,26*%
%TO.N,Net-(M1-Pad26)*%
X183261000Y-87909400D03*
%TO.P,M1,27*%
%TO.N,Net-(J2-Pad4)*%
X183261000Y-85369400D03*
%TO.P,M1,28*%
%TO.N,Net-(M1-Pad28)*%
X183261000Y-82829400D03*
%TO.P,M1,29*%
%TO.N,Net-(M1-Pad29)*%
X183261000Y-80289400D03*
%TO.P,M1,30*%
%TO.N,Net-(J2-Pad3)*%
X183261000Y-77749400D03*
%TO.P,M1,31*%
%TO.N,Net-(M1-Pad31)*%
X183261000Y-75209400D03*
%TO.P,M1,32*%
%TO.N,Net-(D2-Pad1)*%
X183261000Y-72669400D03*
%TD*%
D11*
%TO.P,J1,R1*%
%TO.N,Net-(J1-PadR1)*%
X187410000Y-61540000D03*
%TO.P,J1,R2*%
%TO.N,Net-(J1-PadR2)*%
X190410000Y-61540000D03*
%TO.P,J1,S*%
%TO.N,Net-(D2-Pad1)*%
X181910000Y-57040000D03*
D12*
%TO.P,J1,T*%
%TO.N,Net-(J1-PadT)*%
X183410000Y-61540000D03*
%TD*%
D13*
%TO.P,J2,1*%
%TO.N,Net-(D2-Pad1)*%
X160451800Y-51536600D03*
D14*
%TO.P,J2,2*%
%TO.N,Net-(J1-PadT)*%
X160451800Y-48996600D03*
%TO.P,J2,3*%
%TO.N,Net-(J2-Pad3)*%
X160451800Y-46456600D03*
%TO.P,J2,4*%
%TO.N,Net-(J2-Pad4)*%
X160451800Y-43916600D03*
%TD*%
D15*
%TO.P,D2,1*%
%TO.N,Net-(D2-Pad1)*%
X186690000Y-118618000D03*
D16*
%TO.P,D2,2*%
%TO.N,Net-(D2-Pad2)*%
X189230000Y-118618000D03*
%TD*%
D17*
%TO.P,R1,1*%
%TO.N,Net-(D2-Pad1)*%
X189484000Y-86614000D03*
D18*
%TO.P,R1,2*%
%TO.N,Net-(M1-Pad4)*%
X189484000Y-94234000D03*
%TD*%
D17*
%TO.P,R2,1*%
%TO.N,Net-(D2-Pad2)*%
X172720000Y-118872000D03*
D18*
%TO.P,R2,2*%
%TO.N,Net-(M1-Pad6)*%
X180340000Y-118872000D03*
%TD*%
D10*
%TO.P,SW1,1*%
%TO.N,Net-(J1-PadT)*%
X186944000Y-101600000D03*
%TO.P,SW1,2*%
%TO.N,Net-(M1-Pad4)*%
X186944000Y-104140000D03*
%TO.P,SW1,3*%
%TO.N,N/C*%
X186944000Y-106680000D03*
%TO.P,SW1,4*%
X192024000Y-106680000D03*
%TO.P,SW1,5*%
X192024000Y-104140000D03*
%TO.P,SW1,6*%
X192024000Y-101600000D03*
%TD*%
D19*
%TO.N,*%
X162000000Y-126000000D03*
X188000000Y-42000000D03*
X188000000Y-126000000D03*
%TD*%
D20*
%TO.N,Net-(J1-PadT)*%
X160401000Y-73025000D02*
X160401000Y-72669400D01*
X184912000Y-110236000D02*
X179070000Y-110236000D01*
X166370000Y-78994000D02*
X160401000Y-73025000D01*
X185166000Y-109982000D02*
X184912000Y-110236000D01*
X185166000Y-109982000D02*
X185166000Y-103378000D01*
X185166000Y-103378000D02*
X186944000Y-101600000D01*
X179070000Y-110236000D02*
X166370000Y-97536000D01*
X166370000Y-97536000D02*
X166370000Y-78994000D01*
%TO.N,Net-(J2-Pad3)*%
X163706600Y-46456600D02*
X174250000Y-57000000D01*
X174250000Y-71250000D02*
X180749400Y-77749400D01*
X174250000Y-57000000D02*
X174250000Y-71250000D01*
X180749400Y-77749400D02*
X183261000Y-77749400D01*
X160451800Y-46456600D02*
X163706600Y-46456600D01*
%TO.N,Net-(J2-Pad4)*%
X183261000Y-85369400D02*
X163000000Y-65108400D01*
X158500000Y-54750000D02*
X158500000Y-45750000D01*
X163000000Y-65108400D02*
X163000000Y-59250000D01*
X158500000Y-45750000D02*
X158618400Y-45750000D01*
X158618400Y-45750000D02*
X160451800Y-43916600D01*
X163000000Y-59250000D02*
X158500000Y-54750000D01*
%TO.N,Net-(D2-Pad1)*%
X187452000Y-98806000D02*
X189484000Y-100838000D01*
X179710000Y-57040000D02*
X178500000Y-58250000D01*
X178500000Y-67000000D02*
X181250000Y-69750000D01*
X179910000Y-57040000D02*
X181910000Y-57040000D01*
X187706000Y-88392000D02*
X187706000Y-91440000D01*
X179910000Y-57040000D02*
X179710000Y-57040000D01*
X186690000Y-116332000D02*
X186690000Y-118618000D01*
X181250000Y-69750000D02*
X181250000Y-70658400D01*
X189484000Y-86614000D02*
X188735010Y-85865010D01*
X178500000Y-58250000D02*
X178500000Y-67000000D01*
X181250000Y-70658400D02*
X183261000Y-72669400D01*
X187706000Y-91440000D02*
X187452000Y-91694000D01*
X189484000Y-100838000D02*
X189484000Y-113538000D01*
X189484000Y-113538000D02*
X186690000Y-116332000D01*
X189484000Y-86614000D02*
X187706000Y-88392000D01*
X183261000Y-72669400D02*
X184169400Y-72669400D01*
X188735010Y-85865010D02*
X188735010Y-78143410D01*
X187452000Y-91694000D02*
X187452000Y-98806000D01*
X188735010Y-78143410D02*
X183261000Y-72669400D01*
%TD*%
M02*
